<?xml version="1.0" encoding="UTF-8" standalone="no"?><!DOCTYPE svg PUBLIC "-//W3C//DTD SVG 1.1//EN" "http://www.w3.org/Graphics/SVG/1.1/DTD/svg11.dtd"><svg width="100%" height="100%" viewBox="0 0 56 56" version="1.1" xmlns="http://www.w3.org/2000/svg" xmlns:xlink="http://www.w3.org/1999/xlink" xml:space="preserve" xmlns:serif="http://www.serif.com/" style="fill-rule:evenodd;clip-rule:evenodd;stroke-linejoin:round;stroke-miterlimit:2;"><g><path d="M28.226,22.014l14.658,-14.648c1.272,-1.272 3.338,-1.272 4.61,0.001l1.21,1.211c1.272,1.273 1.272,3.339 -0.001,4.611l-14.654,14.644l14.654,14.645c1.273,1.272 1.273,3.338 0.001,4.61l-1.21,1.212c-1.272,1.272 -3.338,1.273 -4.61,0.001l-14.658,-14.648l-14.658,14.648c-1.273,1.272 -3.339,1.271 -4.61,-0.001l-1.211,-1.212c-1.272,-1.272 -1.271,-3.338 0.002,-4.61l14.654,-14.645l-14.654,-14.644c-1.273,-1.272 -1.274,-3.338 -0.002,-4.611l1.211,-1.211c1.271,-1.273 3.337,-1.273 4.61,-0.001l14.658,14.648Z" style="fill:#bf2200;"/></g></svg>