<?xml version="1.0" encoding="UTF-8" standalone="no"?><!DOCTYPE svg PUBLIC "-//W3C//DTD SVG 1.1//EN" "http://www.w3.org/Graphics/SVG/1.1/DTD/svg11.dtd"><svg width="100%" height="100%" viewBox="0 0 56 56" version="1.1" xmlns="http://www.w3.org/2000/svg" xmlns:xlink="http://www.w3.org/1999/xlink" xml:space="preserve" xmlns:serif="http://www.serif.com/" style="fill-rule:evenodd;clip-rule:evenodd;stroke-linejoin:round;stroke-miterlimit:2;"><g><path d="M35.5,0l-27.537,0c-0.808,0 -1.463,0.655 -1.463,1.926l-0,53.074c-0,0.345 0.655,1 1.463,1l40.074,0c0.808,0 1.463,-0.655 1.463,-1l0,-40.994l-12.129,-0c-1.033,-0 -1.871,-0.839 -1.871,-1.872l-0,-12.134Zm3.516,41.357l-21.951,0l0,2.502l21.951,0l0,-2.502Zm-0.005,-9.004l-21.951,0l-0,2.502l21.951,-0l-0,-2.502Zm-0.025,-8.991l-21.951,-0l-0,2.502l21.951,-0l-0,-2.502Zm-0.986,-11.862l0,-10.85l10.85,10.85l-10.85,-0Z" style="fill:#207ab7;"/></g></svg>