<svg id="standards" xmlns="http://www.w3.org/2000/svg" xmlns:xlink="http://www.w3.org/1999/xlink" viewBox="0 0 363 360" shape-rendering="geometricPrecision" text-rendering="geometricPrecision">
<style><![CDATA[
#standards-s-path2 {animation: standards-s-path2_c_o 3000ms linear infinite normal forwards}@keyframes standards-s-path2_c_o { 0% {opacity: 0} 16.666667% {opacity: 1} 100% {opacity: 1}} #standards-s-path4 {animation: standards-s-path4_c_o 3000ms linear infinite normal forwards}@keyframes standards-s-path4_c_o { 0% {opacity: 0} 16.666667% {opacity: 0} 33.333333% {opacity: 1} 100% {opacity: 1}} #standards-s-path5 {animation: standards-s-path5_c_o 3000ms linear infinite normal forwards}@keyframes standards-s-path5_c_o { 0% {opacity: 0} 33.333333% {opacity: 0} 56.666667% {opacity: 1} 100% {opacity: 1}}
]]></style>
<path id="standards-s-path1" d="M362.07,261.54c-.34,1-.74,1.9-1,2.88-2.66,9.38-8.34,16.28-17.21,20.29-7.81,3.53-15.76,6.76-23.68,10-4.48,1.85-8.54.37-10.07-3.48s.21-7.58,4.77-9.54c7.55-3.25,15.17-6.34,22.69-9.67c7.14-3.17,11.18-10.13,10.3-17.24-.419-3.717-2.067-7.188-4.683-9.862s-6.05-4.398-9.757-4.898c-3.14-.34-6.315.093-9.25,1.26-26.69,10.75-53.29,21.72-79.91,32.65-1.182.516-2.317,1.135-3.39,1.85-4.573,2.956-9.895,4.545-15.34,4.58-17.18.047-34.357.047-51.53,0-1.055.009-2.107-.118-3.13-.38-1.618-.395-3.033-1.372-3.976-2.744-.942-1.373-1.346-3.044-1.134-4.696.106-1.601.793-3.109,1.93-4.241s2.648-1.81,4.25-1.909c3.4-.22,6.82-.12,10.23-.12c14.35,0,28.71.05,43.06,0c7.91,0,13.94-5.56,15.11-13.54.398-3.477-.428-6.984-2.335-9.918-1.907-2.935-4.776-5.113-8.115-6.162-2.036-.552-4.142-.802-6.25-.74-21.89,0-43.77.06-65.65-.08-4.772-.136-9.518.746-13.923,2.585-4.405,1.84-8.369,4.596-11.627,8.085-6.71,6.93-13.65,13.63-20.51,20.42-1.09,1.07-2.11,2.51-3.44,3-4.31,1.52-4.17,4.81-4.14,8.44.1,15.17,0,30.35,0,45.8.914.148,1.835.248,2.76.3c28.713,0,57.42,0,86.12,0c15.18,0,29.55-3.56,43.39-9.64c6.45-2.83,94.88-39.91,101.39-42.61c4.72-2,8.78-.61,10.36,3.37s-.23,7.65-4.81,9.53c-14.64,6-110.68,48-126.46,50.78-8.784,1.568-17.679,2.431-26.6,2.58-27.18.33-54.36.12-81.53.12h-4.62c0,4.13,0,8,0,11.81c0,7.09-2.24,9.37-9.2,9.37-28.47,0-56.9399-.06-85.40994.07-4.26,0-7.28001-1.28-9.140014-5.1v-4.25c1.841724-1.664,3.807404-3.185,5.880004-4.55c1.09-.62,2.75991-.29,4.15995-.29c8.77,0,17.5501,0,26.4801,0v-88.87c-9.64-2.58-19.1201-5.25-28.68009-7.61-1.59618-.303-3.11414-.928-4.46179-1.836-1.34765-.907-2.49689-2.079-3.378174-3.444v-4.24c3.170004-5.08,5.110014-5.84,11.140054-4.25c4.2,1.11,8.4499,2.07,12.5799,3.41c13.7491,4.516,28.2198,6.429,42.6701,5.64c8.79-.49,17.6399-.09,26.4599-.09c8.65,0,10,1.08,11.4,10.3l18.54-19c6.804-7.12,15.774-11.787,25.51-13.27c3.028-.42,6.083-.611,9.14-.57c21.52,0,43.06.43,64.57-.16c19.59-.54,33.13,14.73,31.92,31.91.066.361.173.714.32,1.05c2.16-.86,4.29-1.69,6.41-2.57c18.55-7.68,37.31-14.92,55.6-23.17c20.85-9.41,41.68,3.62,44.69,22.24.119.442.29.869.51,1.27v9.15Zm-272,84.1v-86.89h-38.43v86.76c1,0,1.78.12,2.58.12l35.85.01Z" fill="#FFFFFF"/><path id="standards-s-path2" d="M141.42,17.88c3.65,1.33,6.22-1.11,9.09-4.08c17.34-17.91002,46.42-17.18001,63.12,1.51.734.9387,1.694,1.676,2.791,2.1429c1.096.467,2.293.6483,3.479.5271c27-1.2,47.69,20.29,45.76,47.3.001.6512.132,1.2955.386,1.8949.255.5995.626,1.1419,1.094,1.5951c21,19,21,47.92-.13,67.12-.434.411-.78.905-1.018,1.453-.237.549-.36,1.14-.362,1.737c2.87,25.22-18.52,49.63-46.59,47.53-.904-.122-1.824-.001-2.666.351-.842.351-1.575.921-2.124,1.649-17.76,20.2-48,20.21-65.8,0-.556-.718-1.289-1.279-2.127-1.629-.837-.351-1.751-.479-2.653-.371-27.77,1.36-48.38-19.74-46.6-47.5-.0103-1.208-.4994-2.362-1.36-3.21-21.12-18.94-21.18-48.26-.17-67.11.4874-.5076.8671-1.1087,1.1163-1.7669s.3627-1.3599.3337-2.0631c-2.29-25.28,18.14-47.31,44.43-47.08Zm-1,13.93c-19,.12-32.67,17.31-28.68,36.13c1,4.63.16,6.72-3.68,9.3-18.81,12.65-18.84,37.42-.07,50c3.9,2.62,4.74,4.67,3.77,9.26-4.54,21.51,13.16,39.47,34.85,35.38c5.25-1,7-.24,10,4.23c12,17.92,37.31,18,49.3.07c3.09-4.61,4.71-5.32,10-4.32c21.9,4.16,39.43-13.71,34.86-35.59-.79-3.78.22-6.6,3.47-8.8c19.28-13,19.32-37.27.12-50.4-3.6-2.46-4.3-4.61-3.56-9.08.626-2.9868.858-6.0428.69-9.09-1.85-18.35-17.44-29.68-35.8-26.22-4.82.91-6.69,0-9.58-4-1.854-2.71-4.045-5.173-6.52-7.33-13.48-10.94-33.16-7.69-42.91,6.9-3.12,4.66-4.84,5.35-10.35,4.29-1.91-.29-3.9-.46-5.88-.73h-.03Z" transform="matrix(.999697-.024612 0.024612 0.999697-2.462596 4.494294)" opacity="0" fill="#FFFFFF"/><path id="standards-s-path3" d="M288.62,307.48c-1.856.013-3.642-.712-4.964-2.015-1.323-1.303-2.073-3.078-2.086-4.935-.013-1.856.712-3.642,2.015-4.964c1.303-1.323,3.078-2.073,4.935-2.086c1.839.055,3.588.81,4.889,2.111s2.056,3.05,2.111,4.889c0,1.839-.724,3.605-2.015,4.915s-3.046,2.059-4.885,2.085Z" fill="#FFFFFF"/><path id="standards-s-path4" d="M121.29,102.14c-.046-7.9346,1.488-15.799,4.511-23.1353c3.022-7.3364,7.474-13.9983,13.096-19.5978s12.301-10.0248,19.65-13.0184c7.348-2.9935,15.219-4.4955,23.153-4.4185c33.32.11,59.79,26.9,59.74,60.46.037,7.933-1.501,15.794-4.525,23.127-3.023,7.334-7.473,13.994-13.091,19.595-5.617,5.601-12.291,10.031-19.634,13.033-7.342,3.002-15.208,4.516-23.14,4.455-33.28-.1-59.81-26.97-59.76-60.5Zm106,.18c-.014-9.1034-2.729-17.998-7.801-25.5577-5.071-7.5597-12.272-13.4446-20.691-16.9096-8.418-3.4649-17.675-4.3541-26.599-2.555s-17.113,6.2056-23.531,12.6616c-6.419,6.456-10.777,14.6712-12.523,23.6055-1.747,8.9342-.803,18.1862,2.711,26.5842c3.514,8.397,9.441,15.563,17.031,20.591c7.589,5.027,16.5,7.69,25.603,7.65c6.049.038,12.045-1.13,17.638-3.435s10.671-5.701,14.938-9.99c4.266-4.288,7.635-9.384,9.911-14.989s3.412-11.607,3.343-17.656h-.03Z" opacity="0" fill="#FFFFFF"/><path id="standards-s-path5" d="M174.03,107.05l22.88-22.93c.801-.8568,1.656-1.6617,2.56-2.4099c1.325-1.104,3.018-1.6652,4.74-1.5705c1.722.0946,3.344.838,4.54,2.0805c1.271,1.173,2.038,2.7927,2.14,4.5191.103,1.7265-.467,3.4256-1.59,4.7409-1.848,2.126-3.804,4.1553-5.86,6.0799-7.88,7.9-15.767,15.79-23.66,23.67-4.26,4.23-7.95,4.24-12.15.07s-8.67-8.61-13-13c-3.54-3.6-3.82-7.49-.86-10.5799c2.96-3.09,7.21-2.8701,10.85.6599c2.87,2.77,5.7,5.59,8.55,8.38.12.11.26.11.86.29Z" opacity="0" fill="#FFFFFF"/></svg>
