<svg viewBox="0 0 56 56" xmlns="http://www.w3.org/2000/svg" xml:space="preserve" style="fill-rule:evenodd;clip-rule:evenodd;stroke-linejoin:round;stroke-miterlimit:2"><path d="M28.226 22.014 42.884 7.366a3.26 3.26 0 0 1 4.61.001l1.21 1.211a3.262 3.262 0 0 1-.001 4.611L34.049 27.833l14.654 14.645a3.26 3.26 0 0 1 .001 4.61l-1.21 1.212a3.262 3.262 0 0 1-4.61.001L28.226 33.653 13.568 48.301a3.262 3.262 0 0 1-4.61-.001l-1.211-1.212a3.26 3.26 0 0 1 .002-4.61l14.654-14.645L7.749 13.189a3.262 3.262 0 0 1-.002-4.611l1.211-1.211a3.26 3.26 0 0 1 4.61-.001l14.658 14.648Z" style="fill:#bf2200"/></svg>