<svg width="30" height="31" fill="none" xmlns="http://www.w3.org/2000/svg"><path d="m29.78 28.256-7.562-7.562a.666.666 0 0 0-.47-.176h-.644c2.052-2.228 3.283-5.1 3.283-8.325C24.387 5.511 18.877 0 12.193 0 5.453 0 0 5.51 0 12.194a12.184 12.184 0 0 0 12.194 12.193c3.165 0 6.096-1.231 8.265-3.224v.586c0 .234.059.41.176.527l7.562 7.563c.294.293.704.293.997 0l.586-.586c.293-.294.293-.704 0-.997Zm-17.587-5.745A10.258 10.258 0 0 1 1.877 12.194 10.295 10.295 0 0 1 12.194 1.876c5.686 0 10.317 4.631 10.317 10.318A10.295 10.295 0 0 1 12.194 22.51Z" fill="#fff"/></svg>