<svg width="165" height="28" fill="none" xmlns="http://www.w3.org/2000/svg"><path d="M30.46 10.614c-.106.026-.338.096-.498.114.303-.29.48-.64.48-.928-.142.044-.4.14-.632.193.464-.385.722-.84.606-1.435-.142.07-.338.183-.543.262.41-.612.4-1.155.231-1.47a4.02 4.02 0 0 1-.632.499c.151-.709.142-1.164-.16-1.488-.312.578-.58 1.007-1.016 1.514.036-.472-.018-1.059-.33-1.356 0 0-.089.656-.32.866-.054-.639-.259-.989-.553-1.33 0 0-.017.665-.205 1.076-.16-.56-.445-.988-.82-1.4.027 1.234-.32 3.553-1.327 5.12-.115.927-.222 2.318-1.755 3.14a1.82 1.82 0 0 0-1.158-.315c-.142-.7.784-1.33 1.586-1.837.81-.516 1.158-.954 1.15-1.636-.018-.753-.535-1.059-1.07-1.077-.757-.035-1.372.64-1.514.92-.223.104-.864.297-1.132.367-.294.078-.623.192-.837.367.125.079.481.105.615.079.258-.035 1.078-.184 1.853-.28.285.149.74.402.258.735-.668.42-.953.525-1.889 1.006-1.478.761-.997 2.678-.641 2.818 0 .647.588 1.81.989 2.222.178.814-.063 2.021-.312 2.529-.205-.49-.561-1.636-.793-2.301.24-1.26-.151-1.82-.419-2.03-.267-.22-.694-.158-.98.28.428-.044.57.49.562 1.05-.01.665-.187 1.207-.66 1.207.036.569.66.735.972.455.053.131.303.875.534 1.54.143.394.276.761.365.954.098.21.82.245.9 0 .116-.324.205-.569.383-.954.134-.289.33-.656.615-1.199.196.333.454.85.597 1.2.071.165.116.297.124.358.063.542.027 2.476-.124 3.631-1.613-.429-2.076.341-1.933.919a.535.535 0 0 1 .721-.088c-.044.42.072.727.508.858.463-1.208 2.13-.936 2.29-.84.008-.236.231-.814-.624-.936.035-1.042.142-2.32.178-2.582.036-.262.071-.428-.053-.848-.036-.123-.09-.28-.134-.464a6.346 6.346 0 0 1-.232-1.566c.152.148.508.262.749.21.187.787.463.56.605.892.072.166.09.333.107.473a.78.78 0 0 0 .116.358c.57.018 1.06-.113 1.408-.358a1.24 1.24 0 0 0 .276-.245c-.143-.84-.383-1.252-.829-1.76-.116-.682-.445-1.312-.89-1.872.56-.183 1.13-.63 1.434-.945.267-.017.579-.236.606-.673.16-.018.293-.027.418-.053a21.395 21.395 0 0 0-.062-.402c.205 0 .41-.01.597-.027-.054-.157-.134-.323-.187-.446.205 0 .463-.017.668-.026a4.288 4.288 0 0 1-.258-.56 8.5 8.5 0 0 0 .908-.149 17.187 17.187 0 0 0-.374-.359c.784-.227 1.131-.77 1.167-1.006-.116 0-.356.053-.499.035.481-.28.775-.63.82-1.006Z" fill="#fff"/><path d="M14.541 24.797c-4.392-1.61-4.953-5.145-4.97-6.755h-.019c.01-.043.01-.078.018-.113 0-.35.027-.586.036-.665a1.965 1.965 0 0 0-.09-.543c-.008-.026-.026-.052-.044-.087v1.662c0 1.864.695 3.474 2.067 4.778a8.593 8.593 0 0 0 2.94 1.811l.062.017.063-.017c.383-.14 1.737-.665 2.94-1.811 1.371-1.304 2.066-2.914 2.066-4.778v-.306c-.036.053-.071.088-.107.131-.035.84-.196 2.135-.766 3.115-.668 1.374-1.71 2.503-4.196 3.561Z" fill="#fff"/><path d="M25.062 25.874a3.087 3.087 0 0 1-.873.105h-.49c-1.684-.035-3.412-.525-4.472-1.593 1.46-1.452-.259-2.642-1.185-1.417-.294.385-.526.656-.722 1.032-.16.298-.044.604.321 1.068.196.254.695.647 1.105.91h-8.41c.401-.263.9-.656 1.105-.91.365-.464.49-.761.32-1.068-.204-.376-.436-.647-.721-1.032-.926-1.234-2.646-.035-1.185 1.417-1.06 1.068-2.788 1.558-4.472 1.593H4.92c-.392 0-.66-.035-.873-.105-.348-.079-.428.061-.24.656.124.385.23 1.033.275 1.47h20.944c.045-.437.152-1.085.276-1.479.188-.586.107-.735-.24-.647Zm-6.557-2.853c.276-.358.677-.262.838.035.178.324-.08.718-.428 1.033-.472-.508-.525-.919-.41-1.068Zm-.695 1.69c-.169-.237-.231-.368-.142-.596.089-.219.267-.411.445-.682.294 1.12 2.014 2.187 3.288 2.546h-2.032c-.507-.289-1.175-.744-1.559-1.269Zm-8.08-1.655c.17-.297.57-.393.838-.035.116.158.062.56-.41 1.068-.347-.315-.606-.709-.428-1.033Zm1.23.368c.187.271.365.472.445.682.09.228.036.368-.133.595-.383.525-1.052.98-1.577 1.26H7.673c1.273-.34 2.993-1.417 3.287-2.537Zm13.701 4.252H4.448a7.97 7.97 0 0 0-.321-1.382h20.864a7.11 7.11 0 0 0-.33 1.382Z" fill="#fff"/><path d="M20.465 26.88v-.245c0-.043.01-.06.045-.07h.044c.018 0 .018 0 .018-.008 0-.01-.009-.01-.026-.01h-.321c-.018 0-.027 0-.027.01 0 .008.009.008.018.008h.044c.036.01.045.027.054.07v.455c0 .105 0 .202-.01.254-.008.035-.008.061-.035.07h-.044c-.018 0-.018.009-.018.009 0 .009.009.009.027.009h.151c.098 0 .178.008.348.008.062 0 .07-.008.07-.035a.994.994 0 0 0 .019-.14c0-.017 0-.017-.01-.017-.008 0-.008.009-.008.017 0 .027-.018.053-.036.07-.027.027-.08.035-.142.035-.09 0-.125-.008-.143-.026-.027-.026-.027-.105-.027-.254v-.21h.01Zm1.568.57a.347.347 0 0 0 .187-.045.233.233 0 0 0 .116-.2c0-.115-.054-.193-.196-.298l-.036-.027c-.098-.07-.124-.113-.124-.166 0-.07.053-.122.142-.122.08 0 .116.035.133.06.027.027.036.07.036.08 0 .017.009.017.009.017.009 0 .009-.009.009-.035 0-.087.009-.122.009-.14 0-.009-.01-.009-.018-.017a.563.563 0 0 0-.16-.018c-.17 0-.276.096-.276.219 0 .096.044.175.178.28l.053.044c.098.078.116.13.116.192 0 .061-.053.131-.16.131a.168.168 0 0 1-.17-.122c-.008-.018-.008-.044-.008-.061 0-.01 0-.027-.01-.027-.008 0-.008.018-.017.035 0 .018-.009.088-.009.15 0 .025 0 .034.027.043a.455.455 0 0 0 .169.026Zm-.828-.36c0 .114 0 .21-.01.263 0 .035-.008.052-.035.061h-.044c-.018 0-.018.009-.018.009 0 .009.009.009.026.009h.339c.009 0 .026 0 .026-.01 0-.008-.009-.008-.017-.008h-.063c-.035-.009-.044-.026-.044-.061-.01-.053-.01-.14-.01-.263v-.455c0-.043.01-.06.045-.07h.036c.018 0 .018 0 .018-.017 0-.009-.01-.009-.027-.009h-.302c-.018 0-.027 0-.027.009s.009.017.018.017h.044c.027.01.036.027.045.07v.455Zm-3.1 0c0 .105 0 .202-.01.254 0 .035-.008.061-.035.061h-.045c-.009 0-.017 0-.017.01 0 .008.008.008.026.008h.152c.062 0 .169.009.258.009.223 0 .348-.08.401-.14a.457.457 0 0 0 .134-.324.403.403 0 0 0-.116-.298c-.134-.13-.33-.13-.481-.13h-.357c-.017 0-.026 0-.026.008 0 .009.009.009.017.009h.045c.036.008.045.026.054.07v.463Zm.15-.227v-.236c0-.01.01-.018.019-.027.009 0 .053-.008.08-.008.098 0 .232.017.338.122.054.053.116.14.116.289 0 .122-.026.227-.098.297-.071.062-.151.088-.276.088-.098 0-.142-.026-.16-.044-.01-.017-.01-.061-.018-.087v-.394Zm-.872.227c0 .114 0 .21-.01.263 0 .035-.008.052-.035.061h-.044c-.018 0-.018.009-.018.009 0 .009.009.009.027.009h.337c.009 0 .018 0 .018-.01 0-.008-.01-.008-.018-.008h-.062c-.036-.009-.045-.026-.045-.061v-.718c0-.043.009-.06.045-.07h.035c.01 0 .018 0 .018-.017 0-.009-.009-.009-.027-.009h-.293c-.018 0-.027 0-.027.009s.009.017.018.017h.044c.027.01.036.027.045.07v.455h-.01Zm-.766-.096c0-.009 0-.009.009-.009.018 0 .142 0 .178.01.036 0 .053.025.062.043 0 .017.01.026.01.035 0 .009 0 .017.008.017.009 0 .009-.008.009-.026 0-.009 0-.061.009-.087 0-.035.009-.062.009-.07 0-.01 0-.01-.01-.01-.008 0-.008.01-.017.01-.009.017-.027.017-.053.017h-.205c-.01 0-.01 0-.01-.009v-.288c0-.01.01-.018.01-.018l.187.009c.044 0 .071.017.08.035a.094.094 0 0 1 .009.044c0 .017 0 .017.009.017s.009-.009.009-.017c0-.018 0-.088.009-.097.009-.026.009-.043.009-.052 0-.009 0-.009-.01-.009-.008 0-.008.009-.017.009h-.535c-.018 0-.026 0-.026.009 0 .008.008.008.017.008h.045c.036.01.044.027.053.07v.455c0 .114 0 .202-.009.254-.008.035-.008.061-.035.061h-.045c-.018 0-.018.01-.018.01 0 .008.01.008.027.008h.33c.018 0 .027 0 .027-.009s-.01-.009-.018-.009h-.063c-.035-.008-.044-.035-.044-.06-.009-.053-.009-.14-.009-.255v-.096h.009Zm-7.59.096c0 .105 0 .202-.01.254 0 .035-.008.061-.035.061h-.044c-.018 0-.018 0-.018.01 0 .008.009.008.027.008h.151c.062 0 .17.009.258.009.223 0 .348-.08.401-.14a.456.456 0 0 0 .134-.324.403.403 0 0 0-.116-.298c-.133-.13-.33-.13-.48-.13h-.366c-.018 0-.027 0-.027.008 0 .009.009.009.018.009h.053c.036.008.045.026.054.07v.463Zm.151-.227v-.236c0-.01.01-.018.018-.027.009 0 .054-.008.08-.008.098 0 .232.017.339.122.053.053.116.14.116.289 0 .122-.027.227-.098.297-.072.062-.152.088-.277.088-.098 0-.142-.026-.16-.044-.009-.017-.009-.061-.009-.087v-.394h-.009Zm-1.398.192c0 .167.044.254.106.315.09.08.205.08.268.08.08 0 .169-.01.25-.088.097-.08.115-.22.115-.36v-.367c0-.043.009-.06.045-.07h.035c.018 0 .018 0 .018-.008 0-.01-.009-.01-.027-.01h-.267c-.018 0-.027 0-.027.01 0 .008.01.008.018.008h.045c.035.01.044.027.053.07v.395c0 .122 0 .227-.071.288a.27.27 0 0 1-.17.061.228.228 0 0 1-.15-.052c-.063-.053-.09-.123-.09-.29v-.409c0-.044.018-.062.045-.07h.035c.01 0 .018 0 .018-.01 0-.008-.009-.008-.027-.008h-.329c-.018 0-.027 0-.027.009s.009.009.018.009h.044c.045.008.054.026.054.07v.428h.018Zm11.598.035c0 .105 0 .201-.009.254-.009.035-.009.061-.035.061h-.045c-.018 0-.018.009-.018.009 0 .009.01.009.027.009h.152c.07 0 .151.009.33.009.044 0 .053 0 .061-.035a.664.664 0 0 0 .018-.132c0-.009 0-.026-.009-.026s-.009.009-.009.017c-.008.044-.026.07-.053.088-.027.017-.08.017-.116.017-.125 0-.142-.017-.142-.096v-.28c0-.008 0-.008.009-.008h.169c.044 0 .062.017.071.043 0 .018 0 .035.01.044 0 .009 0 .009.008.009.009 0 .009-.009.009-.018 0-.008 0-.052.009-.078 0-.062.009-.08.009-.088 0-.009-.01-.009-.01-.009-.008 0-.008.009-.017.018-.009.009-.027.017-.053.017h-.188c-.009 0-.009 0-.009-.008v-.298c0-.009 0-.009.01-.009.026 0 .15 0 .169.009.062.009.071.017.08.044a.094.094 0 0 1 .009.044c0 .008 0 .017.009.017s.009-.009.009-.017c0-.018.009-.07.009-.08 0-.052.008-.07.008-.078 0-.009 0-.009-.009-.009-.008 0-.008.009-.017.009-.01 0-.027.009-.054.009h-.472c-.018 0-.027 0-.027.009 0 .008.01.008.018.008h.045c.044.009.053.026.053.07v.455h-.009Zm-4.846 0c0 .105 0 .201-.009.254 0 .035-.009.061-.035.061h-.045c-.018 0-.018.009-.018.009 0 .009.01.009.027.009h.339c.008 0 .017 0 .017-.009s-.009-.009-.018-.009h-.062c-.035-.009-.044-.035-.044-.061-.01-.053-.01-.149-.01-.254v-.481h.152c.107 0 .143.035.143.07v.009c0 .017.009.026.018.026.008 0 .008-.009.008-.017v-.132c0-.017 0-.026-.008-.026-.01 0-.036.009-.116.009h-.588c-.027 0-.045-.018-.054-.018-.009 0-.009.009-.018.026 0 .01-.026.114-.026.132 0 .017 0 .017.009.017.008 0 .008-.008.008-.017 0-.009.01-.026.018-.044.018-.026.045-.035.116-.035h.178v.481h.018Zm-2.69-.428c.036-.053.062-.088.089-.097.018 0 .036-.009.045-.009.008 0 .017-.008.017-.008 0-.009-.008-.009-.018-.009h-.231c-.018 0-.027 0-.027.009s.01.009.018.009h.036c.009 0 .018.008.018.017 0 .009 0 .026-.01.044-.017.035-.124.192-.16.245-.044-.079-.098-.166-.151-.263-.01-.009-.01-.026-.01-.035 0-.009 0-.017.019-.017h.035c.01 0 .018 0 .018-.009s-.009-.009-.027-.009h-.302c-.018 0-.027 0-.027.009s0 .009.009.009.035 0 .053.009c.045.008.071.043.098.087l.205.333-.232.323c-.044.061-.062.079-.098.088-.017.008-.035.008-.044.008-.009 0-.018.01-.018.01 0 .008.009.008.018.008h.249c.018 0 .027 0 .027-.009s-.009-.009-.018-.009h-.027c-.008 0-.026-.008-.026-.017 0-.018.009-.026.018-.053l.178-.28c.053.088.124.202.187.316.009.017 0 .026 0 .026a.029.029 0 0 0-.018.008c0 .01.009.018.045.018h.249c.018 0 .027 0 .027-.009s-.01-.009-.018-.009c-.009 0-.027 0-.045-.008a.11.11 0 0 1-.07-.053c-.028-.035-.224-.358-.26-.411l.179-.262Zm1.96.568c.009 0 .009 0 .009.009l.053.149c.009.017 0 .026-.009.026s-.018 0-.018.009.018.009.036.009h.223c.044 0 .053 0 .053-.01 0-.008-.009-.008-.018-.008h-.053c-.027-.009-.062-.018-.107-.131-.08-.175-.267-.657-.294-.727-.009-.026-.018-.035-.036-.035-.008 0-.017.018-.035.053l-.303.735c-.027.061-.045.096-.098.105h-.036c-.009 0-.018 0-.018.009s.01.009.027.009h.267c.018 0 .018 0 .018-.01 0-.008 0-.008-.018-.008h-.017c-.036 0-.045-.018-.045-.035 0-.009.009-.044.018-.07l.027-.061c0-.009.008-.009.008-.009h.366v-.009Zm-.32-.061c-.01 0-.01 0-.01-.009l.152-.393s0-.01.008-.01c0 0 0 .01.01.01l.15.393s0 .009-.008.009h-.303Zm-2.807.061c.009 0 .009 0 .009.009l.053.149c.01.017 0 .026-.009.026s-.018 0-.018.009.018.009.036.009h.223c.044 0 .053 0 .053-.01 0-.008-.009-.008-.018-.008h-.053c-.027-.009-.062-.018-.107-.131-.08-.175-.267-.657-.303-.727-.009-.026-.018-.035-.027-.035-.008 0-.017.018-.035.053l-.303.735c-.027.061-.044.096-.098.105h-.036c-.008 0-.017 0-.017.009s.008.009.026.009h.268c.017 0 .017 0 .017-.01 0-.008 0-.008-.017-.008H10.3c-.036 0-.045-.018-.045-.035 0-.009.01-.044.018-.07l.027-.061c0-.009.009-.009.009-.009h.365v-.009Zm-.33-.061s-.009 0 0-.009l.152-.393.009-.01.008.01.152.393c0 .009 0 .009-.009.009h-.312Zm-3.162.061s.009 0 .009.009l.053.149c.009.017 0 .026-.009.026s-.018 0-.018.009c0 .008.018.008.036.008h.223c.044 0 .053 0 .053-.008 0-.01-.009-.01-.018-.01H7.46c-.027-.008-.062-.017-.107-.13-.08-.175-.267-.657-.294-.727 0-.026 0-.043-.018-.043-.009 0-.018.017-.035.052l-.294.735c-.027.061-.045.096-.098.105h-.036c-.009 0-.018 0-.018.009s.01.009.027.009h.267c.01 0 .018 0 .018-.01 0-.008 0-.008-.018-.008h-.027c-.035 0-.044-.017-.044-.035 0-.009.009-.044.018-.07l.026-.061c0-.009.01-.009.01-.009h.347Zm-.32-.061c-.01 0-.01 0-.01-.009l.152-.394.008-.008s0 .008.01.008l.15.394c0 .009 0 .009-.008.009h-.303Zm11.562-9.083-.009-.175h.178c.24 0 .366-.227.428-.498-.944-.01-4.312.008-4.312.008v3.413c.285-.201.553-.376.909-.481V19.6h.356c.018-.822.223-1.426.615-1.82l.116-.114.116.114c.392.394.588.989.614 1.82h.365v.796c.384.158.642.394.847.648.32-.639.552-1.374.632-2.223-.017 0-.035.01-.053.01-.383 0-.775-.255-.802-.745Z" fill="#fff"/><path d="M16.688 20.519c-1.024 0-1.416.28-1.978.7v3.263s2.423-.822 3.75-3.123c-.311-.438-.756-.84-1.772-.84Zm.837 1.32-.302-.34-.517.455.214.236s.222-.105.41.122l-.544.464c-.196-.219-.062-.42-.062-.42l-.214-.236-.642.56-.204-.236.65-.543-.232-.262s-.089.078-.214.183c-.187-.21-.33-.49-.196-.84.375-.087.633.097.82.307a4.549 4.549 0 0 1-.214.183l.24.272.535-.438-.303-.35a.754.754 0 0 1 .66.219.784.784 0 0 1 .115.665Zm1.738-4.427h-.072c-.08.394-.267.665-.596.665a.61.61 0 0 0 .614.586c.027 0 .045-.008.072-.008a8.325 8.325 0 0 0-.018-1.243Zm-9.025-.025c-.24 0-.4 0-.4.008a7.15 7.15 0 0 0 .062 1.873c.25-.402.499-.805.48-1.085-.008-.297-.08-.56-.142-.796Z" fill="#fff"/><path d="M10.408 17.387c.062.236.133.498.142.787.01.333-.24.744-.508 1.181a1.301 1.301 0 0 0-.089.15c.766 3.727 4.437 4.97 4.437 4.97v-7.08c.009 0-2.753-.008-3.982-.008Zm2.752 4.427a4.12 4.12 0 0 1-.668.061c-.196 0-.48-.017-.668-.06.018-.08.045-.184.071-.29a1.439 1.439 0 0 1-.392-.104c.054-.193.143-.386.214-.648.25.053.49.079.766.079s.517-.018.766-.079c.072.262.16.455.223.648-.107.035-.25.087-.392.105.036.105.063.21.08.288Zm-1.496-1.549c.133-.052.677-.07.837-.07.16 0 .695.027.838.07.017.07.017.167.008.245-.204.062-.57.088-.837.088-.276 0-.633-.035-.837-.087a.462.462 0 0 1-.01-.245Zm2.04-1.39c-.205.472-.401.97-.463 1.12a3.914 3.914 0 0 0-.339-.036c.134-.42.303-1.015.445-1.391.09-.263.544-.14.357.306Zm-1.203-.71c.036-.218.668-.262.552.22-.115.49-.267 1.067-.383 1.557h-.32c-.116-.49-.268-1.068-.383-1.558-.134-.481.498-.437.534-.218Zm-.846.403c.142.376.303.971.445 1.391a4.333 4.333 0 0 0-.338.035c-.063-.148-.259-.639-.463-1.12-.197-.446.258-.569.356-.306Zm7.785-6.213H9.482v3.615c.045.026.09.061.134.096v-3.56h9.906v3.307a.643.643 0 0 1 .107.14v-3.605h-.187v.008Z" fill="#fff"/><path d="M9.98 15.636c.258.21.356.36.276 1.06-.009.087.036.253.09.428h8.72c.01-.096.018-.184.018-.263.01-.385-.062-.69-.187-.813-.044-.044-.089-.062-.169-.062h-.018l-.347.035.187-.288c.178-.29.445-.455.722-.473v-2.546H9.855v2.844a.598.598 0 0 1 .098.06l.027.018Zm5.541-.332v-.175l-.428-.009c.098-.446.98-1.006 1.381-1.137-.018-.482.624-.64 1.14-.657.642-.017.793.665.793.875 0 .28-.07.902-.427 1.094-.517.28-.962-.105-.962-.455 0-.385.267-.604.74-.551.462.052.427-.21.08-.298-.17-.043-.91-.078-1.159.464a.53.53 0 0 1-.383-.14c-.098.123-.25.201-.454.263.178.358.543.297.766.13-.009.053-.009.097-.009.15 0 .883.953 1.102 1.541.77-.098.288-.053.647-.009.892h-2.316c.036-.245.348-.525.606-.7l-.205-.315c-.25.105-.49.21-.757.28-.642.149-.606-.306.062-.481Zm-1.63.717c-.09.123-.642.29-.775.21-.232-.14-.348-.428-.294-.56.062-.166.668-.332.864-.27.196.06.276.507.205.62Zm-3.216-1.408c.508-.29.775-.5 1.042-.91a1.726 1.726 0 0 1-.615-.517c.971.272 1.461.412 2.61.01-.186.288-.463.463-.694.612.258.42.516.9.606 1.286-.339-.026-.73.052-1.007.306-.428.018-.971.149-1.265-.805-.152.079-.312.175-.312.175.178.621.499 1.05 1.354.954.045.201.08.315.187.481-.347.201-1.23.709-1.897.123v-1.715h-.01Z" fill="#fff"/><path d="M9.855 15.759v1.373h.312c-.054-.183-.098-.34-.08-.446.07-.7-.036-.77-.232-.927Zm9.407 1.373v-1.706c-.204.017-.41.14-.57.393h.054c.383 0 .516.517.507 1.05 0 .088-.009.175-.009.263h.018Zm-7.117-2.336c.16.079.365-.017.57.009-.045-.088-.09-.149-.063-.28.054-.245-.15-.306-.24-.306-.24.017-.365.061-.615 0 .16.166.125.463.348.577Zm147.026 4.489v-4.226c0-.665-.054-.832-.232-1.042-.142-.166-.41-.262-.704-.262-.508 0-1.3.402-1.764.875v4.655h-.971v-4.813c0-.892-.24-1.32-.24-1.32l.971-.263s.231.463.231.98c.669-.657 1.328-.963 2.005-.963.686 0 1.301.359 1.559.919.107.227.151.481.151.726v4.743h-1.006v-.01Zm-22.779 0v-4.226c0-.665-.054-.832-.232-1.042-.142-.166-.41-.262-.704-.262-.507 0-1.3.402-1.764.875v4.655h-.971v-4.813c0-.892-.24-1.32-.24-1.32l.971-.263s.232.463.232.98c.668-.657 1.327-.963 2.004-.963.695 0 1.301.359 1.559.919.098.227.151.481.151.726v4.743h-1.006v-.01Zm-16.838.07h-.979l-2.29-6.256 1.025-.21 1.478 4.305c.179.516.303 1.067.303 1.067h.027s.107-.49.303-1.05l1.461-4.156h1.06l-2.388 6.3Zm26.744-.07v-4.611c0-.604-.276-.92-.82-.92-.57 0-1.024.368-1.683.963v4.568h-1.007v-4.436c0-.377-.036-.63-.178-.805-.152-.175-.357-.254-.651-.254-.49 0-.962.236-1.621.831v4.664h-.962v-4.839c0-.901-.232-1.33-.232-1.33l.971-.227s.232.49.232.927c.419-.464 1.203-.936 1.853-.936a1.56 1.56 0 0 1 1.479 1.041c.614-.639 1.39-1.041 2.04-1.041.944 0 1.594.7 1.594 1.697v4.717h-1.015v-.01Zm3.768-2.958v.15c0 .585.08 1.04.294 1.364.357.543.944.761 1.586.761a2.24 2.24 0 0 0 1.559-.586l.383.63c-.561.499-1.327.779-2.147.779-1.764 0-2.824-1.251-2.824-3.325 0-1.05.232-1.733.766-2.363.508-.586 1.14-.866 1.907-.866.686 0 1.291.236 1.719.674.552.551.73 1.137.73 2.634v.14h-3.973v.008Zm2.619-2.135c-.214-.34-.659-.55-1.149-.55-.909 0-1.416.647-1.47 1.942h2.913c-.018-.674-.107-1.085-.294-1.392Zm-29.086 2.135v.15c0 .585.08 1.04.294 1.364.356.543.944.761 1.586.761a2.24 2.24 0 0 0 1.559-.586l.383.63c-.561.499-1.328.779-2.147.779-1.764 0-2.824-1.251-2.824-3.325 0-1.05.232-1.733.766-2.363.508-.586 1.14-.866 1.906-.866.686 0 1.292.236 1.729.674.552.551.73 1.137.73 2.634v.14h-3.982v.008Zm2.619-2.135c-.214-.34-.668-.55-1.149-.55-.909 0-1.416.647-1.47 1.942h2.913c-.018-.674-.107-1.085-.294-1.392Zm5.523-.21a.809.809 0 0 0-.276-.052 1.53 1.53 0 0 0-1.06.455c-.294.289-.374.472-.374.989v3.91h-.998v-4.812c0-.918-.214-1.33-.214-1.33l.998-.262s.241.49.205 1.015c.463-.639 1.131-1.041 1.791-1.041.169 0 .347.06.347.06l-.419 1.068Zm-18.574 5.469c-1.746 0-2.744-1.269-2.744-3.325 0-2.03 1.034-3.273 2.709-3.273 1.06 0 1.755.473 2.182 1.094.392.569.588 1.304.588 2.319 0 2.083-1.14 3.185-2.735 3.185Zm1.301-4.996c-.267-.552-.829-.805-1.354-.805-.561 0-1.087.262-1.301.673-.205.386-.303.893-.303 1.628 0 .875.152 1.654.401 2.047.232.377.74.63 1.292.63.668 0 1.167-.34 1.381-.945.142-.384.196-.735.196-1.356-.018-.866-.107-1.452-.312-1.872ZM83.93 19.618c-.393-.167-.758-.455-.918-.78a3.413 3.413 0 0 1-.392.342c-.32.228-.784.35-1.319.35-1.452 0-2.245-.726-2.245-2.004 0-1.505 1.06-2.205 3.145-2.205.125 0 .24 0 .383.01v-.263c0-.718-.142-.954-.766-.954-.552 0-1.185.262-1.888.726l-.73-1.207c.346-.21.596-.342 1.06-.525.64-.263 1.184-.377 1.79-.377 1.096 0 1.853.403 2.111 1.12.09.263.125.464.116 1.155l-.036 2.162c-.009.7.036 1.006.615 1.426l-.926 1.024Zm-1.462-3.142c-1.184 0-1.594.21-1.594.98 0 .5.32.84.757.84.32 0 .641-.166.89-.437l.028-1.383h-.08Zm-24.997.123v.052c0 .99.499 1.558 1.38 1.558.589 0 1.141-.21 1.658-.639l.668 1.006c-.757.604-1.541.893-2.468.893-1.88 0-3.09-1.304-3.09-3.325 0-1.155.24-1.916.819-2.546.534-.587 1.185-.867 2.058-.867.757 0 1.47.254 1.888.674.597.604.873 1.47.873 2.809v.385h-3.786Zm2.005-1.304c0-.472-.054-.726-.205-.962-.17-.254-.41-.377-.758-.377-.65 0-1.024.5-1.024 1.392v.026h1.978v-.079h.008Zm-8.615 1.304v.052c0 .99.499 1.558 1.38 1.558.589 0 1.141-.21 1.658-.639l.668 1.006c-.757.604-1.55.893-2.468.893-1.88 0-3.09-1.304-3.09-3.325 0-1.155.24-1.916.819-2.546.534-.587 1.184-.867 2.057-.867.758 0 1.47.254 1.89.674.596.604.872 1.47.872 2.809v.385h-3.786Zm2.005-1.304c0-.472-.054-.726-.205-.962-.17-.254-.41-.377-.758-.377-.65 0-1.024.5-1.024 1.392v.026h1.978v-.079h.008Zm36.792 3.99v-4.174c0-.726-.134-.945-.58-.945-.347 0-.792.228-1.184.578v4.541h-1.71V14.63c0-.551-.08-1.076-.232-1.505l1.523-.429c.152.263.24.543.24.805.259-.175.473-.323.758-.472.347-.175.793-.28 1.176-.28.73 0 1.363.376 1.568.927.089.236.124.517.124.919v4.69h-1.683Zm-23.564 0v-4.174c0-.726-.124-.945-.578-.945-.348 0-.793.228-1.185.578v4.541h-1.71V14.63c0-.551-.08-1.076-.232-1.505l1.523-.429c.151.263.24.543.24.805.259-.175.473-.323.758-.472.347-.175.793-.28 1.176-.28.73 0 1.363.376 1.567.927.09.236.125.517.125.919v4.69h-1.684Zm-19.464.175a1.452 1.452 0 0 1-.508-.63c-.42.403-1.034.613-1.72.613-.917 0-1.71-.43-1.933-1.042-.098-.288-.142-.63-.142-1.277V13.01l1.683-.315v4.13c0 .578.054.875.143 1.05.089.175.347.298.597.298.418 0 .935-.298 1.06-.613v-4.515l1.639-.341v4.9c0 .429.143.866.392 1.164l-1.212.691Zm25.033.026c-.802 0-1.684-.253-2.646-.735l.614-1.225c.526.315 1.435.727 2.174.727.481 0 .864-.316.864-.727 0-.437-.32-.665-1.006-.787l-.767-.14c-.436-.079-.97-.377-1.202-.656-.232-.272-.374-.744-.374-1.155 0-1.252 1.006-2.1 2.53-2.1 1.05 0 1.737.314 2.334.603l-.562 1.129c-.65-.324-1.122-.464-1.612-.464-.499 0-.829.254-.829.63 0 .324.214.499.82.648l.793.201c.802.201 1.069.438 1.3.726.241.298.357.665.357 1.094.009 1.33-1.114 2.231-2.788 2.231Zm92.808-5.704h-1.327v4.025c0 .69.187.927.819.927.277 0 .446-.035.624-.122l.143.63a2.358 2.358 0 0 1-1.123.253c-.33 0-.588-.06-.828-.175-.446-.21-.615-.612-.615-1.242V13.79h-.829v-.752h.829c0-.604.098-1.584.098-1.584l1.051-.227s-.125.98-.125 1.802h1.595l-.312.753Zm-57.914 5.643c-1.096 0-2.031-.376-2.699-1.076-.74-.787-1.087-1.855-1.087-3.334 0-1.645.445-2.808 1.354-3.613.624-.552 1.381-.814 2.29-.814.935 0 1.737.289 2.396.849l-.472.638c-.713-.472-1.23-.665-1.907-.665-1.024 0-1.826.464-2.182 1.453-.232.639-.348 1.365-.348 2.187 0 1.13.214 2.04.615 2.608.401.569 1.292.919 2.12.919.553 0 1.025-.114 1.39-.342V15.61h-1.764l-.205-.848h2.949v4.016c-.615.394-1.559.647-2.45.647Zm-65.264 1.339s-.258.148-.792.148c-.686 0-1.301-.402-1.63-.612-.42-.271-1.114-.665-1.8-.875-1.328 0-2.2-.359-2.878-1.225-.677-.858-1.024-1.96-1.024-3.238 0-1.88.73-3.395 2.004-4.077a4.072 4.072 0 0 1 1.835-.429c2.361 0 3.822 1.698 3.822 4.428 0 1.89-.686 3.307-1.746 3.998.24.088.588.315.793.438.32.184.704.359 1.096.359.383 0 .793-.062.793-.062l-.473 1.147Zm-2.743-7.85a1.606 1.606 0 0 0-1.56-1.102c-.596 0-1.122.298-1.38.762-.303.56-.446 1.33-.446 2.38 0 1.505.259 2.45.793 2.826.285.201.642.297 1.06.297 1.239 0 1.764-.927 1.764-3.15 0-.883-.08-1.522-.231-2.012Zm58.67 6.371a.925.925 0 0 1-.097-.377c-.419.368-.918.543-1.506.543-1.657 0-2.708-1.269-2.708-3.264 0-2.004 1.131-3.386 2.797-3.386.472 0 .847.114 1.159.367a7.38 7.38 0 0 1-.054-.953V10.01l1.702.262v6.676c0 1.584.124 2.092.24 2.346h-1.532v-.01Zm-.382-4.725c-.32-.28-.624-.412-.936-.412-.766 0-1.095.63-1.095 2.057 0 1.382.294 1.829 1.184 1.829.321 0 .677-.22.847-.412V14.56Zm-19.341 4.873c-.73 0-1.318-.34-1.523-.875-.125-.323-.151-.525-.151-1.443V12.32c0-.84-.027-1.357-.09-1.934l1.747-.394c.062.35.089.761.089 1.671v5.005c0 1.103.009 1.252.115 1.427.063.113.205.175.348.175.062 0 .107 0 .187-.027l.294 1.007c-.294.122-.65.183-1.016.183Zm-61.602-9.126a.192.192 0 0 0-.16.079c-.071-.009-.143-.026-.223-.035v-.394a.193.193 0 0 0 .125-.183.204.204 0 0 0-.196-.202.198.198 0 0 0-.196.202c0 .07.044.14.107.175v.376c-.072-.009-.134-.018-.214-.018a.186.186 0 0 0-.178-.114.196.196 0 0 0-.196.193c0 .105.089.193.196.193a.204.204 0 0 0 .17-.088l.222.026-.01.569a.199.199 0 0 0-.106.175c0 .105.089.201.196.201a.205.205 0 0 0 .205-.201.196.196 0 0 0-.116-.175l.009-.551.187.026a.192.192 0 0 0 .187.131.196.196 0 0 0 .196-.192.21.21 0 0 0-.205-.193Zm-1.737-.113a.208.208 0 0 0-.187.113c-.071.009-.143.009-.214.018v-.376a.199.199 0 0 0 .107-.175.204.204 0 0 0-.196-.202.2.2 0 0 0-.205.202c0 .078.054.148.116.183l.009.394c-.071.009-.151.017-.223.035a.198.198 0 0 0-.356.123c0 .104.089.192.196.192.089 0 .16-.053.187-.131l.187-.027.009.552a.183.183 0 0 0-.116.175c0 .105.09.201.196.201a.205.205 0 0 0 .205-.201.198.198 0 0 0-.107-.175v-.569c.071-.009.143-.018.223-.026a.204.204 0 0 0 .17.087c.106 0 .204-.087.204-.192a.205.205 0 0 0-.205-.201Zm6.762-4.051c0-1.225-.045-2.231-.063-2.546.045.008.098.026.152.043.89.307 1.096 1.365 2.948.167-.988.113-1.042-.71-1.496-.727.686-.385.73-1.26.73-1.26-.57.455-1.906.482-2.164.63-.348.202-.776.455-1.07.613-.766.411-.231 2.651-.311 3.465-.419-1.216-1.256-1.033-1.693-1.733-.33.587.018 1.558.152 1.838-.482.385-.348 1.085-.232 1.277.41-.288 1.042-.218 1.23.272-.535.323-1.435.376-2.05-.202l-.213.237c.436.56 1.514.778 2.325.323 0 .132-.036.272-.09.43a1.956 1.956 0 0 1-1.576.122c.08.612.802 1.067 1.488 1.26-.232.175-.517.245-.722.218.134.36.205.832-.071 1.208-.339-.219-.526-.446-.65-1.304-.134-.866-.767-1.741-1.257-1.916-.026.306-.026.175.027.367 1.3.937.57 2.634 1.924 3.247.5-.56.508-.753.428-1.278.49-.131.855-.534.989-.849-.464.22-1.203-.166-1.408-.463.81-.027 1.56-.622 2.325-1.41.686-.7 1.595-.594 1.524-.043.472-.07.659-.7.507-1.111.695-.219 1.239-.718 1.31-1.505-.936.455-2.111-.298-2.993.63Zm1.113.656c.365.298.25.718.16.814-.32-.543-1.354-.359-2.37.77a2.55 2.55 0 0 1-.275.28c.08-1.348-1.042-1.374-1.372-1.234.036-.385.285-.656.41-.691-.33-.376-.401-.849-.437-1.199.552.236 1.363.866 1.497 1.951l.356-.236c-.107-1.899-.08-1.89-.098-3.176 0-.184.009-.604.588-.56.027.481.098 1.75.071 3.517h.205c.187-.49.855-1.076 1.63-1.023.526.035.713.026 1.016-.105-.24.595-1.14.857-1.38.892ZM20.52 3.185c.374-.262.615-.385.81-.498.321.008.882-.027 1.212-.193-.347.42-.383.569-.953.63.74.061 1.051.709 1.407.814-1.229.376-1.354-.823-2.476-.753Zm-7.743 5.968c-.686.035-1.354.91-1.078 1.907-.107.035-.4.035-.499-.166-.07.323-.748.7-1.238.647.267-.289.454-.936.98-1.277.535-.341.766-.578.953-1.164-.25.114-1.523.438-1.888.053.846-.123 1.835-.587 2.325-.893l-.196-.201c-.526.297-1.23.534-1.586.647-.125-1.032.873-.988.953-.708.41-.482.125-1.173-.178-1.252.312-.822 0-1.33-.267-1.636-.063.875-1.06 1.015-1.176 1.689-.036-.534-.071-1.978-.116-2.678C9.704 2.81 8.02 2.345 7.762 2.345c-1.096.053-1.194-.087-1.167-.586-.561.621-.374 1.172.098 1.444-.063.376-.668.665-1.043.743.891.814 1.925.333 2.424-.131l.098-.096c.178.306.311.875.311 1.199-.837-.044-.98.586-.98.822 1.06-.429 1.176 1.566 1.452 1.881-.267-.017-.748-.638-1.452-.682-.855-.044-1.149.402-1.496.385.062.586.793.919 1.265.989-.24.603-.027 1.015.472 1.163 0-.551.713-.726 1.47-.288.917.525 1.38.568 2.12.35-.125.262-.454.288-.855.682-.57.551-.588 1.269-1.22 1.531.748.35 1.87-.14 2.03-.42.312.193.713.079.82-.114-.508-1.102.348-1.75.686-1.74 0-.01.152-.333-.018-.324Zm-3.875-.447c-.374-.148-.953-.245-1.274.202-.178-.307.08-.753.24-.893-.819.018-1.282-.227-1.407-.472.303-.167 1.07-.438 1.702.017.436.315.65.464 1.167.63.187-.184.115-.096.178-.149-.419-.288-.606-2.485-1.434-2.563.115-.28.543-.254.89-.167.027-.49-.178-1.303-.49-1.776.481-.245.811.018.971.604.179.621-.035 2.17.384 3.57l.258-.236c-.134-.814.784-1.112.98-1.523.08.543-.036.796-.196.989.33.035.48.359.427.577-.792-.113-1.256.665-1.078 1.287-.596.13-.997.035-1.318-.097ZM6.648 2.59c.624.298.829-.254 1.996.49-.775.236-1.372 1.181-2.245.936.623-.306.561-.752.926-.98-.231-.026-.686-.131-.677-.446Z" fill="#fff"/><path d="M16.813 11.883c-.125-.788-.41-3.01-.446-3.745l-.347.017c0 .123.018.289.036.49a5.487 5.487 0 0 0-1.506-.201c-.552 0-1.096.087-1.506.201.018-.192.036-.359.036-.49l-.338-.026c-.036.744-.321 2.957-.446 3.745-.205.079-.338.28-.338.639 0 0 1.87.026 2.601.026.73 0 2.601-.026 2.601-.026-.009-.36-.142-.552-.347-.63Zm-2.263-.027c-.294.56-.846.543-1.336.228a1.531 1.531 0 0 0-.58-.236c.08-.552.223-1.584.321-2.46.624-.28 1.4-.34 1.586.368.187-.708.962-.638 1.586-.367.098.875.24 1.916.32 2.459a1.59 1.59 0 0 0-.579.236c-.463.315-1.015.332-1.318-.228Z" fill="#fff"/><path d="M18.434 3.255c.01-.175-.32-.306-.41-.315-.142-.009-.311.28-.498.455-.16-.84-.08-1.208.009-1.584.365.648.855.788 1.113.753-.873-.683-.722-1.304-.989-1.339-.151-.018-.258-.009-.338-.009-.303 0-.348.587-.392.849a6.767 6.767 0 0 0-.73-1.085c-.322-.814-.714-.613-1.114-.98.311.464.062.752.784 1.085.187.175.41.455.552.674a3.419 3.419 0 0 1-.32.359c-.09.13-.134.638-.41 1.014.41-.175.579-.428.721-.665 1.31.972.25 3.44-.053 3.982-.286-.193-.66-.298-.99-.359l-.035-.114-.303-.971h.143c.16 0 .205-.105.178-.192l.9.27.4.123-.24-.332-.419-.569.419-.569.24-.332-.4.122-.811.245c-.054-.183-.205-.271-.374-.288l.276-.902.116-.385-.33.236-.579.412-.579-.411-.33-.237.116.385.276.901c-.16.027-.32.114-.374.29l-.81-.246-.401-.122.24.332.419.569-.419.569-.24.332.4-.122.91-.271c-.027.087.008.192.169.192h.142l-.303.971-.044.123c-.348.061-.722.175-1.007.367-.882-1.671-.633-3.369.107-3.929-.009.36.303.84.454.937-.098-.368.072-1.024-.124-1.19-.134-.114-.339-.166-.562-.166.152-.245.357-.552.704-.998.517-.228.668-.823.793-1.12-.561.201-.98.49-1.07.954-.195.262-.418.569-.667.927.018-.437-.232-.586-.553-.612-.944.192-.882.866-1.692 1.33.552.192 1.425-1.007 1.728-.875.045.735-.125 1.312-.125 1.715-.142-.158-.213-.263-.338-.28a.804.804 0 0 0-.65.245c-.063.376-.045 1.076-.401 1.907.525-.472.783-1.409.864-1.68.133.184.285.587.32.937.063.665.482 1.785.838 2.318a.991.991 0 0 0-.09.63c-.275.202-.311.481-.213.674.107.201.374.341.695.219l.098-.044c.338-.14.962-.394 1.72-.394.756 0 1.389.254 1.719.394l.097.044c.321.122.588-.018.695-.219.098-.192.063-.472-.213-.674.035-.245 0-.472-.116-.673l.009.008c.65-.91.694-2.642 1.229-3.132.044.603.374 1.111.695 1.181-.25-.429-.25-1.26-.232-1.645Zm-2.966.814.48-.149-.23.315-.063.079.062.079.232.314-.606-.183c.044-.123.09-.254.125-.455Zm-2.299.647.232-.315.062-.079-.062-.078-.232-.315.481.148c.027.202.072.342.125.464l-.606.175Zm1.898-.157h-.374l.044-.657c.561-.253.517.263.33.657Zm-.107 1.12-.32-.228-.081-.061-.08.061-.32.228.204-.665h.392l.205.665Zm-.49-2.547.08.062.08-.062.33-.236-.187.622c-.01 0-.018 0-.018.008a.225.225 0 0 0-.41 0c-.009 0-.009 0-.018-.008l-.187-.622.33.236Zm-.428 1.427c-.187-.394-.231-.91.33-.657l.044.657h-.374Zm.508 1.172.454.324c-.195-.018-.356-.018-.454-.018-.098 0-.258 0-.454.018l.454-.324Zm-1.853 2.31-.098.035c-.133.053-.223.009-.258-.052-.036-.07-.01-.184.151-.28.018-.009.045-.026.071-.035l.321.254a1.474 1.474 0 0 1-.187.078Zm1.087-.341-.33-.315a4.59 4.59 0 0 1 .838-.131l.196.376c-.25 0-.49.035-.704.07Zm1.835.07-.196-.438c.294.053.58.14.829.245l.115.456a5.02 5.02 0 0 0-.748-.263Zm-1.069-.866a5.19 5.19 0 0 0-1.88.376.579.579 0 0 1 .125-.315c.312-.376 1.14-.508 1.746-.508.606 0 1.434.132 1.746.508a.5.5 0 0 1 .125.315c-.526-.236-1.22-.376-1.862-.376Zm-4.454 9.756c.08-.708-.036-.77-.24-.936-.179-.149-.482-.192-.776-.394-.214-.148-.276-.35-.543-.63.053-.595.49-1.33.81-1.496.045-.026.036-.954.036-.954s.214-.008.196-.017c-.285-.175-.632-.044-.882.245-.24.192-.802.56-1.185.691-.516-.429-1.327-.814-1.924-1.391 0 0 .784-.009 1.15-.149.097-.061.347-.446.24-.822a3.78 3.78 0 0 1-.472-.228 4.958 4.958 0 0 1-.517-.324c-.339-.253-.481-.472-1.07-.62.037-.263.099-.202.357-.377.33-.219.517-.481.65-.744.099-.201-.017-.621-.276-.087a1.109 1.109 0 0 1-.641.516c.027-.166.036-.263.036-.35.864-.595.775-1.12.712-1.619-.053-.289-.338-.411-.33-.114.01.202.188.762-.4 1.085-.018-.245-.08-.358-.134-.48.526-.683.303-1.34.08-1.637-.142-.193-.48-.254-.33.044.134.245.34.918-.053 1.19-.133-.158-.285-.228-.338-.447.035-.735-.01-1.19-.107-1.452-.09-.245-.33-.403-.312-.035.018.411.054.927.018.954-.036.035-.588-.473-.81-.622-.232-.157-.5-.096-.241.21.24.263.944.78.855.945-.054.105-.561-.306-.829-.393-.267-.088-.347.052-.124.227.365.289.606.481 1.202.683.597.192.891 1.006.704 2.16-.009.053-.107.045-.17.027-.026-.437-.106-.971-.213-1.199-.142-.315-.419-.315-.32.097.08.323.124.682.07 1.12-.49-.08-.676-.21-.881-.333-.018-.227.098-.595.116-.919.017-.323-.179-.525-.286-.122-.106.394-.178.577-.24.857-.143-.043-.294-.105-.356-.183-.036-.035 0-.473-.036-.797-.036-.358-.178-.35-.285-.035a2.2 2.2 0 0 0-.107.57.634.634 0 0 1-.303-.456c.027-.376.09-.77.134-1.024.035-.175-.09-.542-.232-.105-.107.324-.134.587-.196.805-.125-.008-.285-.717-.374-1.18-.036-.202-.214-.438-.25.017-.035.516.072 1.032.205 1.26-.249-.027-.49-.473-.668-.735-.151-.228-.231.008-.214.105.152.91.891 1.233 1.22 1.295.518.726 1.506 1.04 2.344 1.4-1.087-.01-1.372.42-1.87.14.017.402.222.586.418.682.142.061.276.079.338.096.09.49.562.464.962.49-.107.954.018 2.214.865 3.15-.027.482-.063 1.12-.054 1.54-.686.622-1.31 1.952-1.55 2.687-.187.55-.463.98-.89 1.18.347.36.863.185 1.166-.017.018.324.098.552.152.744-.196.289-.339.49-.321.849a.954.954 0 0 0-.499.35c-.08.096.009.534.098.717.276.613.062 1.995.009 2.398.116.009.33.009.374-.158.071.062.24.184.32.447-.017.113-.088.542.134.595.179.043.963.017 1.07-.114a1.915 1.915 0 0 1-.295-.499c0-.21-.017-.464-.08-.569-.089-.157-.312-.507-.463-.647-.027-.254-.053-1.383.062-1.811.205-.14 1.577-1.138 1.862-2.1.25.087.178.752.178 1.618 0 .237.286.35.464.377.374.043.9.393 1.496 1.26.116-.123.268-.237.268-.237.08.105.169.35.222.508.063.122.544.192.909.079.125-.044.196-.062.276-.193-.463-.796-.748-1.33-1.345-1.767-.276-.202-.65-.307-.962-.5.205-.384.775-2.17.436-2.825-.115-.22-.552-.43-1.078-.333.437-.516 1.337-1.549 1.452-1.864.107.123.633.035 1.025.193.143.061.543.569.561.744.036.315.054.69-.17 1.557.161-.026.135-.035.286-.096.027.227-.045.411-.25.761.054.315.197.796.348.884.196-.586.935-1.409.918-1.899-.036-.665-.348-1.225-.312-1.514Z" fill="#fff"/></svg>