<svg width="170" height="56" fill="none" xmlns="http://www.w3.org/2000/svg"><g clip-path="url(#a)" fill="#022A50"><path d="M59.279 21.26c-.194.051-.662.195-.967.236.58-.575.926-1.274.926-1.85-.275.092-.774.277-1.232.38.906-.78 1.395-1.675 1.181-2.868-.275.144-.672.37-1.059.535.794-1.223.784-2.313.459-2.95-.357.34-.784.73-1.232 1.007.295-1.418.275-2.333-.316-2.98-.6 1.15-1.12 1.993-1.964 3.011.07-.935-.031-2.107-.642-2.724 0 0-.173 1.306-.63 1.727-.113-1.285-.5-1.984-1.08-2.673 0 0-.04 1.337-.397 2.159-.305-1.12-.875-1.984-1.598-2.806.05 2.467-.631 7.113-2.586 10.238-.234 1.85-.437 4.646-3.42 6.29a3.464 3.464 0 0 0-2.25-.637c-.285-1.398 1.527-2.672 3.095-3.68 1.578-1.028 2.27-1.901 2.23-3.279-.041-1.5-1.05-2.117-2.087-2.158-1.466-.072-2.668 1.274-2.953 1.84-.427.205-1.68.596-2.198.74-.57.154-1.222.39-1.629.73.244.154.926.205 1.201.164.499-.072 2.087-.37 3.604-.555.56.298 1.445.812.498 1.47-1.292.832-1.852 1.048-3.674 2.015-2.881 1.52-1.944 5.355-1.242 5.643 0 1.295 1.15 3.628 1.924 4.44.346 1.624-.112 4.05-.6 5.057-.398-.986-1.1-3.268-1.548-4.604.468-2.53-.285-3.64-.814-4.06-.53-.443-1.364-.32-1.904.554.835-.092 1.11.987 1.09 2.097-.021 1.337-.357 2.406-1.283 2.416.07 1.14 1.292 1.47 1.903.915.092.257.58 1.757 1.049 3.094.274.791.54 1.52.722 1.901.194.422 1.599.494 1.761 0 .224-.647.397-1.14.754-1.901.264-.576.641-1.316 1.2-2.406.378.658.887 1.696 1.172 2.406.132.318.234.586.244.709.112 1.09.05 4.954-.245 7.267-3.145-.863-4.03.689-3.756 1.84.458-.504 1.039-.442 1.405-.175-.092.843.143 1.46.998 1.717.906-2.416 4.143-1.881 4.448-1.675.01-.463.448-1.625-1.222-1.871.062-2.087.275-4.646.357-5.18.071-.535.132-.864-.122-1.697-.072-.247-.163-.555-.255-.925-.214-.843-.438-1.943-.458-3.145.285.287.977.524 1.456.41.366 1.584.895 1.121 1.17 1.779.143.34.173.658.214.946.03.277.071.514.224.72 1.12.03 2.066-.237 2.748-.72.214-.155.387-.319.55-.504-.275-1.675-.743-2.508-1.608-3.526-.224-1.377-.865-2.631-1.73-3.741 1.099-.36 2.208-1.265 2.799-1.881.529-.041 1.13-.483 1.17-1.347.306-.041.57-.051.804-.103-.03-.236-.091-.596-.122-.812.407 0 .784-.02 1.171-.051a9.668 9.668 0 0 0-.366-.884c.407 0 .906-.03 1.313-.051a7.97 7.97 0 0 1-.5-1.12 15.18 15.18 0 0 0 1.772-.299c-.193-.206-.407-.411-.723-.73 1.537-.462 2.2-1.531 2.28-2.004-.223 0-.692.103-.967.082.825-.514 1.405-1.213 1.487-1.963Z"/><path d="M37.83 24.734H18.45v7.226c.092.052.173.124.265.206v-7.123h19.28v6.62c.07.071.132.164.193.287v-7.206h-.356v-.01ZM28.294 49.64c-8.55-3.217-9.64-10.3-9.67-13.506-.01 0-.02 0-.03-.01l.03-.237c0-.699.05-1.172.081-1.336a5.15 5.15 0 0 0-.163-1.09c-.02-.051-.06-.113-.081-.164v3.33c0 3.731 1.364 6.949 4.031 9.56 2.341 2.292 4.967 3.361 5.72 3.628l.123.041.122-.04c.753-.268 3.38-1.337 5.72-3.63 2.668-2.61 4.022-5.838 4.022-9.559v-.606c-.061.113-.133.175-.214.267-.071 1.676-.377 4.276-1.486 6.23-1.324 2.754-3.35 5.005-8.205 7.123Zm-3.423-31.3c-1.333.083-2.646 1.83-2.086 3.824-.194.072-.774.062-.967-.34-.143.648-1.446 1.399-2.403 1.296.53-.576.876-1.87 1.914-2.56 1.038-.688 1.506-1.15 1.863-2.322-.479.226-2.973.873-3.675.092 1.639-.236 3.573-1.172 4.53-1.778l-.387-.401c-1.028.586-2.402 1.069-3.095 1.285-.244-2.066 1.71-1.984 1.853-1.429.804-.966.245-2.354-.356-2.508.61-1.645 0-2.662-.52-3.28-.121 1.759-2.056 2.036-2.29 3.383-.081-1.07-.142-3.958-.234-5.366-.152-2.621-3.42-3.526-3.919-3.526-2.138.103-2.341-.185-2.29-1.182-1.08 1.244-.713 2.354.203 2.889-.122.75-1.313 1.326-2.035 1.49 1.74 1.624 3.756.658 4.713-.267l.213-.185c.347.617.601 1.747.601 2.395-1.629-.093-1.914 1.182-1.914 1.634 2.067-.863 2.29 3.125 2.83 3.773-.53-.031-1.456-1.265-2.83-1.357-1.649-.103-2.229.781-2.9.75.121 1.172 1.546 1.84 2.463 1.984-.469 1.203-.051 2.025.916 2.323 0-1.1 1.384-1.45 2.87-.565 1.782 1.048 2.698 1.14 4.123.699-.234.524-.886.575-1.67 1.357-1.11 1.1-1.14 2.538-2.381 3.063 1.455.699 3.634-.278 3.95-.843.61.38 1.394.154 1.597-.237-.977-2.2.672-3.505 1.324-3.474.02.02.305-.637-.01-.617Zm-7.553-.904c-.733-.298-1.852-.494-2.484.4-.346-.595.163-1.5.479-1.767-1.598.02-2.504-.463-2.738-.956.59-.33 2.087-.874 3.308.03.845.617 1.272.926 2.27 1.255.356-.37.224-.206.346-.309-.814-.565-1.18-4.964-2.789-5.129.234-.555 1.059-.504 1.72-.329.051-.987-.356-2.61-.957-3.546.927-.494 1.568.041 1.894 1.213.346 1.244-.061 4.348.743 7.144l.499-.473c-.255-1.634 1.516-2.23 1.903-3.043.153 1.1-.071 1.583-.376 1.984.64.082.926.71.824 1.162-1.547-.237-2.443 1.336-2.097 2.58-1.13.246-1.914.051-2.545-.216ZM12.941 5.204c1.222.606 1.608-.504 3.889.987-1.507.483-2.667 2.364-4.367 1.88 1.221-.616 1.089-1.51 1.802-1.963-.459-.061-1.334-.267-1.324-.904Zm27.77 7.103c0-2.446-.092-4.46-.122-5.098a2.3 2.3 0 0 1 .295.092c1.74.617 2.138 2.735 5.731.33-1.924.225-2.026-1.42-2.901-1.46 1.333-.761 1.425-2.519 1.425-2.519-1.12.905-3.705.967-4.214 1.265-.672.41-1.517.904-2.087 1.223-1.496.822-.458 5.304-.6 6.938-.805-2.436-2.444-2.076-3.299-3.474-.641 1.161.041 3.125.306 3.68-.927.76-.682 2.179-.458 2.549.794-.576 2.025-.432 2.392.534-1.039.648-2.79.761-3.98-.41l-.428.482c.845 1.131 2.952 1.563 4.52.648-.01.257-.061.545-.163.863-.815.432-1.863.669-3.074.247.163 1.223 1.567 2.148 2.89 2.518-.447.35-1.007.494-1.404.442.244.71.387 1.655-.143 2.406-.661-.442-1.018-.894-1.272-2.611-.255-1.727-1.486-3.485-2.443-3.834-.051.606-.051.339.05.74 2.535 1.881 1.1 5.273 3.747 6.496.967-1.12.977-1.51.834-2.56.957-.256 1.67-1.068 1.924-1.695-.906.431-2.34-.33-2.738-.925 1.568-.052 3.023-1.244 4.52-2.817 1.333-1.408 3.105-1.192 2.962-.092.916-.134 1.283-1.409.977-2.22 1.344-.422 2.413-1.44 2.555-3.012-1.791.935-4.092-.576-5.802 1.274Zm2.178 1.326c.713.586.479 1.429.306 1.624-.621-1.1-2.637-.709-4.611 1.542-.143.165-.326.36-.54.555.153-2.693-2.036-2.744-2.677-2.467.071-.78.55-1.305.804-1.387-.641-.75-.784-1.696-.855-2.385 1.069.462 2.646 1.727 2.921 3.896l.693-.473c-.204-3.793-.163-3.783-.184-6.363-.01-.36.01-1.203 1.15-1.11.041.956.194 3.505.143 7.041h.407c.367-.987 1.66-2.138 3.166-2.045 1.038.072 1.384.04 1.975-.216-.489 1.192-2.24 1.706-2.698 1.788Zm-2.952-7.226c.733-.524 1.191-.76 1.578-.987.631.02 1.71-.051 2.362-.38-.682.843-.754 1.141-1.863 1.264 1.435.134 2.036 1.43 2.748 1.624-2.402.73-2.646-1.665-4.825-1.52ZM30.93 20.653a.39.39 0 0 0-.305.155c-.133-.02-.275-.041-.428-.062l.01-.791a.383.383 0 0 0 .234-.36.388.388 0 0 0-.386-.39.395.395 0 0 0-.387.39.37.37 0 0 0 .203.339l-.01.76c-.132-.01-.265-.03-.407-.04a.395.395 0 0 0-.356-.237.382.382 0 0 0-.387.39c0 .216.173.391.387.391a.375.375 0 0 0 .326-.185c.152.02.295.031.437.052l-.01 1.15a.387.387 0 0 0-.204.35c0 .216.174.39.387.39a.389.389 0 0 0 .387-.39.383.383 0 0 0-.234-.36l.01-1.1c.133.021.244.042.367.062.06.155.193.268.366.268a.389.389 0 0 0 .387-.391.389.389 0 0 0-.387-.39Zm-3.371-.226a.379.379 0 0 0-.356.236c-.133.01-.275.02-.407.041l-.01-.76a.388.388 0 0 0-.183-.73.395.395 0 0 0-.388.39c0 .165.092.299.234.36l.01.792c-.142.01-.295.04-.427.061a.36.36 0 0 0-.305-.154.395.395 0 0 0-.387.39.386.386 0 0 0 .753.123l.367-.06.01 1.1c-.133.05-.224.195-.224.36 0 .215.173.39.387.39a.388.388 0 0 0 .386-.39.408.408 0 0 0-.213-.35l-.01-1.152c.132-.02.285-.03.427-.051a.388.388 0 0 0 .326.185.389.389 0 0 0 .387-.39.374.374 0 0 0-.377-.391Z"/><path d="M32.72 23.799c-.234-1.583-.804-6.014-.865-7.504l-.672.03c.01.258.041.587.072.977a10.737 10.737 0 0 0-2.932-.41c-1.069 0-2.128.164-2.932.41.03-.39.061-.72.071-.976l-.671-.031c-.061 1.48-.631 5.91-.866 7.504-.407.154-.661.565-.661 1.285 0 0 3.644.05 5.059.05 1.405 0 5.049-.05 5.049-.05.01-.73-.255-1.131-.652-1.285Zm-4.397-.041c-.58 1.12-1.66 1.079-2.596.452-.377-.247-.763-.411-1.12-.473.163-1.1.428-3.176.631-4.934 1.212-.555 2.718-.678 3.085.73.366-1.408 1.863-1.285 3.084-.73.194 1.758.468 3.824.631 4.934-.356.062-.743.226-1.12.473-.936.627-2.015.658-2.595-.453Zm20.451 28.031c-.417.133-.926.205-1.7.205h-.947c-3.277-.072-6.637-1.048-8.703-3.186 2.85-2.899-.499-5.294-2.31-2.827-.56.77-1.019 1.316-1.405 2.066-.326.607-.082 1.203.63 2.128.387.504 1.355 1.295 2.138 1.82H20.12c.784-.525 1.75-1.306 2.138-1.82.702-.925.946-1.532.63-2.128-.396-.75-.844-1.295-1.414-2.066-1.812-2.467-5.161-.072-2.31 2.827-2.067 2.127-5.427 3.114-8.704 3.186h-.896c-.763 0-1.283-.072-1.7-.205-.672-.165-.825.133-.458 1.305.254.781.448 2.066.54 2.95h40.758c.081-.874.285-2.158.54-2.95.366-1.172.213-1.47-.469-1.305Zm-12.755-5.705c.53-.72 1.313-.524 1.64.082.345.637-.154 1.44-.836 2.056-.926-1.018-1.028-1.83-.804-2.138Zm-1.354 3.382c-.325-.473-.437-.74-.264-1.193.162-.442.519-.832.875-1.377.57 2.24 3.92 4.379 6.403 5.098h-3.95c-1.028-.555-2.31-1.47-3.064-2.528Zm-15.727-3.3c.326-.606 1.1-.791 1.629-.082.224.308.132 1.12-.804 2.138-.672-.617-1.17-1.419-.825-2.056Zm2.392.73c.367.545.713.935.876 1.377.173.452.06.73-.265 1.193-.753 1.058-2.036 1.963-3.064 2.528h-3.94c2.474-.709 5.823-2.847 6.393-5.098Zm26.67 8.5H8.647a16.485 16.485 0 0 0-.631-2.754H48.62a15.9 15.9 0 0 0-.62 2.755Z"/><path d="M13.982 54.502c.01 0 .02.01.02.021l.102.288c.01.03 0 .051-.02.062-.02 0-.031 0-.031.02s.03.02.071.02h.438c.081 0 .102 0 .102-.02s-.01-.02-.03-.02c-.031 0-.062 0-.103-.01-.05-.011-.122-.042-.203-.258-.153-.36-.52-1.315-.57-1.45-.03-.05-.041-.071-.061-.071-.02 0-.041.03-.061.092l-.59 1.48c-.041.124-.092.196-.194.206h-.072c-.02 0-.03 0-.03.02 0 .021.02.021.04.021h.53c.02 0 .04 0 .04-.02s-.01-.02-.04-.02h-.03c-.072 0-.092-.032-.092-.073 0-.02.01-.082.03-.133l.051-.134c.01-.02.01-.02.02-.02h.683Zm-.631-.113c-.01 0-.01-.01-.01-.02l.295-.792c0-.01.01-.02.01-.02.01 0 .01.01.01.02l.295.792c0 .01 0 .02-.01.02h-.59Zm1.789-.236c0 .34.092.524.214.627.163.154.387.154.51.154.152 0 .325-.02.488-.164.193-.165.224-.453.224-.71v-.74c.01-.082.02-.123.081-.133.03 0 .051-.01.071-.01.03 0 .041-.01.041-.021 0-.02-.01-.02-.05-.02-.092 0-.235.01-.266.01 0 0-.152-.01-.264-.01-.03 0-.051 0-.051.02 0 .01.01.02.04.02.021 0 .062.01.082.01.071.021.092.052.102.134v.782c0 .257-.01.462-.132.585-.092.103-.224.124-.326.124a.466.466 0 0 1-.295-.093c-.112-.092-.184-.247-.184-.586v-.329c0-.36 0-.421.01-.493 0-.082.02-.123.082-.134.03 0 .04-.01.071-.01.02 0 .041-.01.041-.02 0-.021-.02-.021-.05-.021-.082 0-.235.01-.286.01-.071 0-.214-.01-.336-.01-.03 0-.05 0-.05.02 0 .01.01.021.04.021s.071.01.092.01c.081.021.101.052.101.134v.843Zm2.423.072c0 .216 0 .411-.01.503-.01.072-.02.124-.072.124-.02.01-.05.01-.091.01-.03 0-.041.01-.041.02 0 .021.01.021.05.021h.296c.112 0 .326.02.499.02.427 0 .661-.164.773-.277a.95.95 0 0 0 .255-.658.808.808 0 0 0-.234-.596c-.244-.267-.642-.267-.927-.267-.142 0-.285.01-.356.01-.071 0-.214-.01-.336-.01-.03 0-.05 0-.05.02 0 .01.01.021.04.021s.071.01.092.01c.07.021.101.052.101.134.01.072.01.134.01.493v.422Zm.295-.452V53.3c0-.02.01-.041.03-.052a.55.55 0 0 1 .153-.02c.183 0 .458.03.662.236.102.093.224.288.224.586 0 .236-.051.463-.194.596-.142.124-.295.165-.529.165-.183 0-.275-.052-.305-.093a.77.77 0 0 1-.02-.185c-.011-.04-.011-.236-.011-.473v-.287h-.01Zm2.911.729c.01 0 .02.01.02.021l.112.288c.01.03-.01.051-.02.062-.03 0-.04 0-.04.02s.03.02.07.02h.438c.092 0 .112 0 .112-.02s-.01-.02-.03-.02c-.02 0-.062 0-.102-.01-.051-.011-.112-.042-.204-.258-.153-.36-.52-1.315-.58-1.45-.02-.05-.04-.071-.061-.071-.02 0-.03.03-.061.092l-.58 1.48c-.051.124-.092.196-.204.206h-.071c-.02 0-.03 0-.03.02 0 .021.01.021.04.021h.519c.03 0 .04 0 .04-.02s-.01-.02-.03-.02h-.04c-.072 0-.092-.032-.092-.073 0-.02.01-.082.03-.133l.051-.134c0-.02.01-.02.02-.02h.693Zm-.631-.113c-.01 0-.01-.01-.01-.02l.295-.792c0-.01.01-.02.01-.02.01 0 .01.01.01.02l.285.792c0 .01 0 .02-.01.02h-.58Zm2.912-1.007c.072-.113.123-.175.174-.185.03-.01.061-.01.081-.01.02 0 .041-.01.041-.02 0-.022-.01-.022-.04-.022-.092 0-.184.01-.235.01-.04 0-.142-.01-.234-.01-.03 0-.05.01-.05.021 0 .01.02.02.03.02.02 0 .05 0 .071.01.02.011.04.022.04.042 0 .02-.01.062-.02.103a9.1 9.1 0 0 1-.315.493 10.508 10.508 0 0 1-.295-.524c-.02-.02-.02-.051-.02-.072 0-.01.01-.02.03-.041.02 0 .05-.01.06-.01.021 0 .031-.01.031-.02 0-.022-.01-.022-.04-.022-.092 0-.214.01-.255.01-.112 0-.295-.01-.356-.01-.03 0-.051 0-.051.021 0 .02.01.02.02.02.02 0 .061.01.102.021.082.02.133.072.194.175l.407.668-.448.648c-.082.113-.122.154-.194.174-.04.01-.07.01-.091.01-.02 0-.03.01-.03.021 0 .02.01.02.04.02h.488c.031 0 .052 0 .052-.02 0-.01-.01-.02-.031-.02h-.051c-.02-.01-.04-.02-.04-.041s.01-.062.03-.093l.346-.565c.102.174.244.41.377.637.02.03.01.051-.01.051-.02.01-.031.01-.031.02 0 .011.02.032.081.032h.488c.021 0 .042 0 .042-.02 0-.021-.01-.021-.03-.021-.021 0-.052 0-.093-.01-.06-.01-.101-.042-.132-.103-.05-.072-.438-.71-.509-.833l.377-.555Zm3.806 1.12c.01 0 .02.01.02.021l.102.288c.01.03 0 .051-.02.062-.02 0-.03 0-.03.02s.03.02.07.02h.449c.081 0 .102 0 .102-.02s-.01-.02-.031-.02c-.02 0-.061 0-.092-.01-.05-.011-.122-.042-.203-.258-.153-.36-.52-1.315-.58-1.45-.02-.05-.041-.071-.062-.071-.02 0-.03.03-.06.092l-.58 1.48c-.042.124-.092.196-.204.206h-.072c-.02 0-.03 0-.03.02 0 .021.01.021.04.021h.52c.03 0 .04 0 .04-.02s-.01-.02-.03-.02h-.03c-.072 0-.092-.032-.092-.073 0-.02.01-.082.04-.133l.051-.134c-.01-.01 0-.02 0-.02h.682Zm-.63-.113c-.011 0-.011-.01-.011-.02l.285-.792c.01-.01.01-.02.02-.02 0 0 .01.01.01.02l.296.792c0 .01 0 .01-.01.01h-.59v.01Zm2.066-.165c0 .216 0 .412-.01.504-.01.072-.02.123-.071.123-.02.01-.051.01-.082.01-.03 0-.04 0-.04.021 0 .02.02.02.05.02h.662c.02 0 .04 0 .04-.02 0-.01-.01-.02-.04-.02s-.081 0-.112-.01c-.071-.01-.091-.062-.091-.124-.01-.103-.01-.288-.01-.514v-.945l.294.01c.204.01.265.072.275.133v.021c.01.03.01.041.02.041s.021-.01.021-.03c0-.062.01-.227.01-.278 0-.031 0-.052-.02-.052s-.071.02-.224.02h-.916c-.082 0-.163-.01-.234-.01-.061-.01-.082-.03-.102-.03-.01 0-.02.01-.03.04a2.15 2.15 0 0 0-.041.268c0 .031 0 .041.02.041s.02-.01.03-.03c0-.021.02-.052.041-.083.041-.061.092-.061.224-.072l.346-.01v.976h-.01Zm4.053-.184c0-.011 0-.011.02-.011.041 0 .286 0 .347.01.071.01.112.052.122.072.01.031.01.062.01.083 0 .01.01.03.02.03.02 0 .02-.03.02-.051 0-.02.011-.123.011-.165.01-.072.02-.133.02-.143 0-.01 0-.021-.01-.021-.02 0-.02.01-.03.02a.135.135 0 0 1-.102.042c-.03.01-.071.01-.102.01h-.295c-.02 0-.02-.01-.02-.02v-.587c0-.03.01-.03.02-.03h.356c.092 0 .143.04.153.072.02.03.02.072.02.092 0 .031.01.041.02.041s.02-.01.02-.03c.011-.021.011-.165.011-.196.01-.062.02-.092.02-.103 0-.01-.01-.02-.01-.02-.01 0-.02.01-.04.02a.48.48 0 0 0-.102.01h-.611c-.071 0-.214-.01-.336-.01-.04 0-.05 0-.05.02 0 .011.01.021.04.021s.071.01.091.01c.082.021.092.052.102.134.01.072.01.134.01.494v.41c0 .237 0 .412-.01.505-.01.072-.02.123-.071.123-.02.01-.05.01-.092.01-.03 0-.03.01-.03.02 0 .021.01.021.05.021h.653c.041 0 .051 0 .051-.02 0-.01-.01-.02-.03-.02-.041 0-.092 0-.123-.011-.07-.01-.081-.051-.091-.123-.01-.103-.01-.268-.01-.504v-.206h-.02Zm1.495.184c0 .237 0 .412-.01.525-.01.061-.02.102-.071.113-.02.01-.051.01-.082.01-.03 0-.04 0-.04.02 0 .021.02.021.05.021h.663c.02 0 .041 0 .041-.02 0-.01-.01-.021-.04-.021-.041 0-.092 0-.123-.01-.071-.01-.091-.052-.091-.113-.01-.103-.01-.288-.01-.525v-.904c0-.093.02-.124.09-.134.021 0 .042-.01.072-.01.02 0 .04-.01.04-.02 0-.011-.02-.021-.05-.021-.092 0-.224.01-.285.01-.061 0-.214-.01-.295-.01-.04 0-.051 0-.051.02s.01.02.04.02c.031 0 .052.011.082.011.05.02.071.052.081.134v.904h-.01Zm1.394.001c0 .216 0 .411-.01.503-.01.072-.02.124-.07.124-.021.01-.052.01-.093.01-.02 0-.04.01-.04.02 0 .021.02.021.05.021h.296c.112 0 .326.02.499.02.427 0 .672-.164.784-.277a.951.951 0 0 0 .254-.658.807.807 0 0 0-.234-.596c-.255-.267-.642-.267-.937-.267-.132 0-.285.01-.356.01-.061 0-.214-.01-.336-.01-.04 0-.05 0-.05.02 0 .01.01.021.04.021.02 0 .071.01.092.01.07.021.091.052.101.134v.915h.01Zm.286-.452V53.3c0-.02.01-.041.04-.052a.54.54 0 0 1 .143-.02c.183 0 .458.03.672.236a.829.829 0 0 1 .213.586c0 .236-.04.463-.193.596-.143.124-.295.165-.53.165-.183 0-.274-.052-.305-.093-.02-.02-.02-.123-.03-.185-.01-.04-.01-.236-.01-.473v-.287Zm2.2.452c0 .216 0 .411-.011.503-.01.072-.02.124-.061.124-.02.01-.05.01-.092.01-.03 0-.04 0-.04.02 0 .021.02.021.05.021h.296c.132 0 .295.01.641.01.092 0 .112 0 .122-.061.01-.051.03-.206.03-.267 0-.02 0-.052-.02-.052s-.02.02-.02.041c-.02.093-.04.154-.102.175-.06.03-.152.03-.214.03-.234 0-.274-.04-.274-.194v-.555c0-.01 0-.021.02-.021.05 0 .275 0 .326.01.081.01.122.041.132.093.01.03.01.061.01.082 0 .02 0 .02.02.02s.02-.03.02-.04c0-.01.011-.114.011-.155.01-.123.02-.164.02-.175 0-.02-.01-.02-.02-.02s-.02.01-.03.03c-.02.021-.051.032-.112.032-.051.01-.326.01-.367.01-.02 0-.02-.01-.02-.03v-.587c0-.02 0-.02.02-.02h.326c.112.02.142.04.153.092.01.031.02.072.02.093 0 .02.01.03.02.03.02 0 .02-.01.03-.02.011-.03.011-.134.011-.154.01-.103.02-.134.02-.154 0-.01 0-.021-.01-.021s-.03.01-.03.01c-.02.01-.051.01-.102.01h-.58c-.061 0-.214-.01-.326-.01-.04 0-.051 0-.051.02 0 .011.01.021.04.021.031 0 .072.01.092.01.082.021.102.052.102.134v.904h-.05Zm2.106-.412v-.493c0-.082.02-.124.081-.134.03 0 .072-.01.092-.01.03 0 .04-.01.04-.02 0-.021-.01-.021-.05-.021-.092 0-.265.01-.316.01-.061 0-.204-.01-.316-.01-.04 0-.05 0-.05.02 0 .01.01.02.04.02s.061.011.082.011c.071.02.091.052.102.134v.904c0 .227 0 .412-.01.504-.01.072-.021.123-.072.123-.02.01-.05.01-.091.01-.02 0-.031.01-.031.021 0 .02.01.02.05.02h.296c.183 0 .346.011.682.011.122 0 .132-.01.153-.072.02-.062.03-.247.03-.278 0-.03 0-.04-.02-.04s-.02.01-.02.04a.363.363 0 0 1-.061.145c-.051.061-.143.061-.275.061-.184 0-.234-.01-.275-.051-.04-.041-.04-.206-.04-.514v-.39h-.021Zm1.456.411c0 .237 0 .412-.01.525-.01.061-.02.102-.071.113-.02.01-.051.01-.092.01-.03 0-.04 0-.04.02 0 .021.02.021.05.021h.662c.02 0 .04 0 .04-.02 0-.01-.01-.021-.04-.021s-.081 0-.112-.01c-.071-.01-.092-.052-.092-.113-.01-.103-.01-.288-.01-.525v-.41c0-.36 0-.422.01-.494.01-.093.02-.124.092-.134.03 0 .04-.01.071-.01.02 0 .03-.01.03-.02 0-.011-.02-.021-.04-.021-.092 0-.224.01-.285.01-.071 0-.214-.01-.305-.01-.03 0-.051 0-.051.02s.01.02.03.02c.03 0 .061.011.092.011.05.02.081.052.081.134.01.072.01.133.01.493v.411h-.02Zm1.608.72a.73.73 0 0 0 .377-.092.478.478 0 0 0 .214-.411c0-.226-.102-.38-.377-.607l-.07-.051c-.184-.144-.245-.236-.245-.329 0-.144.102-.247.275-.247.153 0 .214.072.244.124a.25.25 0 0 1 .061.154c0 .02.01.04.02.04s.02-.02.02-.06c0-.196.011-.258.011-.289 0-.02-.01-.03-.03-.03a.985.985 0 0 0-.306-.041c-.326 0-.54.184-.54.442 0 .195.092.36.347.555l.112.082c.193.154.224.267.224.38 0 .123-.102.267-.316.267-.142 0-.275-.061-.326-.236a.684.684 0 0 1-.02-.113c0-.02 0-.041-.02-.041s-.02.03-.03.061c0 .042-.011.185-.011.309 0 .051.01.072.04.082a.877.877 0 0 0 .347.051ZM35.877 6.54c.02-.35-.631-.616-.784-.637-.275-.02-.61.555-.967.925-.316-1.696-.153-2.415.03-3.166.703 1.295 1.66 1.573 2.169 1.511-1.71-1.377-1.415-2.621-1.934-2.683-.295-.03-.51-.01-.662-.01-.59 0-.672 1.162-.753 1.696-.387-.73-.764-1.326-1.425-2.169C30.92.383 30.156.794 29.372.054c.611.925.112 1.501 1.527 2.18.367.349.794.894 1.08 1.346a6.471 6.471 0 0 1-.612.71c-.173.266-.264 1.274-.804 2.034.804-.36 1.12-.853 1.405-1.336 2.545 1.933.478 6.887-.102 7.977-.56-.38-1.272-.597-1.934-.71l-.071-.226-.6-1.953h.274c.316 0 .387-.216.346-.39l1.751.544.774.247-.468-.668-.815-1.141.814-1.13.469-.669-.774.237-1.578.493c-.112-.36-.407-.535-.733-.576l.53-1.809.224-.77-.642.472-1.12.823-1.13-.823-.64-.473.223.771.53 1.81c-.326.05-.611.215-.733.575l-1.578-.493-.753-.237.468.668.814 1.131-.814 1.141-.468.668.773-.247 1.761-.544c-.05.174.01.39.336.39h.275l-.6 1.953-.062.226c-.671.124-1.404.34-1.974.74-1.71-3.35-1.232-6.743.203-7.873-.02.709.59 1.675.886 1.88-.194-.729.142-2.045-.244-2.374-.265-.226-.662-.339-1.09-.329.296-.483.693-1.09 1.364-1.994C26.868 1.822 27.163.64 27.408.044c-1.1.411-1.904.976-2.077 1.912-.387.514-.814 1.13-1.293 1.85.02-.874-.458-1.182-1.089-1.223-1.853.39-1.71 1.737-3.288 2.662 1.08.38 2.78-2.015 3.36-1.747.09 1.47-.245 2.631-.245 3.433-.275-.309-.417-.524-.651-.555-.224-.041-.845.01-1.263.483-.122.74-.091 2.138-.784 3.824 1.029-.956 1.517-2.827 1.69-3.362.265.36.55 1.172.611 1.861.122 1.336.936 3.567 1.639 4.646-.194.37-.244.792-.183 1.264-.54.401-.6.967-.418 1.347.204.411.733.678 1.354.442l.194-.082c.651-.268 1.873-.782 3.349-.782 1.476 0 2.697.514 3.349.782l.193.082c.621.247 1.15-.02 1.344-.442.193-.38.132-.946-.408-1.347.072-.503 0-.956-.234-1.346l.02.02c1.263-1.819 1.344-5.283 2.393-6.28.092 1.213.733 2.22 1.364 2.364-.489-.884-.489-2.55-.458-3.31Zm-5.782 1.614.926-.288-.458.627-.112.165.122.164.459.638-1.181-.37c.102-.247.193-.525.244-.936ZM25.626 9.45l.458-.637.122-.165-.122-.164-.458-.627.927.288c.05.41.142.678.244.925l-1.17.38Zm3.705-.308h-.742l.091-1.326c1.1-.483.998.545.651 1.326Zm-.223 2.251-.631-.463-.153-.113-.163.113-.621.463.407-1.326h.753l.408 1.326Zm-.947-5.098.163.113.152-.113.642-.463-.367 1.244c-.01.01-.02.01-.03.01a.427.427 0 0 0-.397-.257.413.413 0 0 0-.387.257c-.01 0-.03 0-.04-.01L27.53 5.83l.63.463Zm-.835 2.847c-.356-.781-.458-1.82.642-1.326l.091 1.326h-.733Zm.998 2.354.875.637c-.376-.041-.692-.041-.875-.041-.194 0-.51.01-.876.041l.876-.637ZM24.72 16.12l-.183.082c-.265.103-.438.021-.499-.102-.071-.134-.03-.36.296-.566.04-.02.091-.051.132-.072l.62.514c-.142.052-.264.103-.366.144Zm2.107-.678-.64-.648a9.746 9.746 0 0 1 1.638-.267l.387.76a8.257 8.257 0 0 0-1.385.155Zm3.573.133-.376-.873a7.95 7.95 0 0 1 1.608.483l.224.905a11.51 11.51 0 0 0-1.456-.514Zm-2.076-1.737a9.644 9.644 0 0 0-3.655.761 1.16 1.16 0 0 1 .245-.627c.61-.75 2.219-1.018 3.41-1.018 1.18 0 2.789.268 3.4 1.018.152.175.234.39.244.617-1.049-.463-2.402-.75-3.644-.75Zm-8.4 20.979c-.468 0-.773.01-.773.01-.112 1.368-.061 2.611.122 3.742.478-.802.967-1.603.947-2.169-.03-.586-.163-1.11-.296-1.583Z"/><path d="M20.263 34.817c.132.473.254.987.274 1.563.02.668-.468 1.49-.987 2.364a4.686 4.686 0 0 0-.173.308c1.507 7.453 8.642 9.94 8.642 9.94V34.828s-5.374-.02-7.756-.01Zm5.354 8.86a7.65 7.65 0 0 1-1.293.114c-.377 0-.947-.041-1.293-.113.041-.154.092-.37.133-.586a3.23 3.23 0 0 1-.754-.206c.112-.39.285-.77.428-1.295.478.113.947.144 1.486.144.54 0 1.008-.041 1.486-.144.143.524.316.905.428 1.295a3.231 3.231 0 0 1-.753.206c.05.216.101.432.132.586Zm-2.922-3.103c.265-.093 1.314-.155 1.63-.155.305 0 1.353.062 1.628.155.03.133.03.339.01.483-.407.123-1.11.185-1.639.185-.53 0-1.232-.062-1.639-.185a1.55 1.55 0 0 1 .01-.483Zm3.97-2.796a90.184 90.184 0 0 0-.895 2.24 6.896 6.896 0 0 0-.662-.061c.265-.833.59-2.025.865-2.776.183-.524 1.059-.298.692.597Zm-2.34-1.398c.06-.442 1.302-.525 1.068.452-.234.977-.53 2.128-.753 3.115-.102 0-.214-.01-.316-.01-.102 0-.214.01-.315.01-.224-.987-.52-2.128-.754-3.115-.234-.977 1.008-.894 1.07-.452Zm-1.63.801c.265.75.601 1.943.866 2.776-.234.01-.458.03-.662.062-.122-.299-.509-1.285-.906-2.241-.387-.895.509-1.12.702-.596Zm13.161-.965-.02-.35h.356c.468 0 .703-.462.835-.997-1.832-.01-8.398.01-8.398.01v6.836c.55-.411 1.069-.74 1.76-.966v-1.502h.683c.04-1.644.428-2.846 1.19-3.638l.225-.236.224.236c.763.792 1.15 1.984 1.19 3.639h.713v1.604c.754.308 1.252.79 1.64 1.305a12.848 12.848 0 0 0 1.241-4.45c-.03 0-.06.01-.102.01a1.546 1.546 0 0 1-1.537-1.501Z"/><path d="M37.494 34.87h-.132c-.163.78-.52 1.315-1.17 1.325.05.781.63 1.182 1.19 1.182.041 0 .092-.01.133-.02.05-.792.06-1.604-.02-2.488Zm-5.017 6.218c-1.985 0-2.759.565-3.848 1.408v6.538s4.723-1.645 7.299-6.25c-.601-.905-1.466-1.696-3.451-1.696Zm1.628 2.642-.6-.69-1.018.916.417.483s.428-.206.804.236c-.285.247-.773.679-1.068.936-.377-.442-.112-.833-.112-.833l-.418-.483-1.242 1.13-.407-.472 1.273-1.08-.459-.534s-.162.154-.417.37c-.366-.421-.651-.977-.387-1.686.723-.164 1.232.206 1.598.617l-.417.37.458.545 1.039-.884-.57-.71c.539-.061 1.007.124 1.272.432.265.309.387.802.254 1.337ZM19.418 31.313c.498.411.692.72.54 2.128-.021.175.07.503.172.863h16.98c.02-.185.03-.37.03-.524.01-.77-.122-1.377-.377-1.634-.081-.083-.173-.124-.325-.124h-.02l-.683.072.367-.586c.356-.575.865-.904 1.405-.945v-5.088H19.184v5.684c.06.041.132.072.183.113l.05.041Zm10.79-.678v-.36l-.835-.01c.204-.884 1.914-2.015 2.677-2.282-.04-.966 1.212-1.285 2.23-1.316 1.252-.03 1.547 1.326 1.547 1.747 0 .555-.143 1.8-.835 2.18-1.008.555-1.863-.216-1.863-.905 0-.76.53-1.213 1.425-1.11.906.103.835-.411.153-.586-.336-.082-1.771-.165-2.25.915-.274.01-.57-.103-.743-.278-.183.247-.478.411-.875.524.346.72 1.059.597 1.486.258-.01.092-.02.195-.02.308 0 1.758 1.863 2.21 3.013 1.552-.194.565-.102 1.295-.02 1.778h-4.51c.081-.493.672-1.038 1.18-1.398l-.396-.637c-.489.216-.947.411-1.476.555-1.252.329-1.18-.565.112-.935Zm-3.176 1.439c-.173.257-1.242.586-1.507.421-.447-.277-.671-.863-.56-1.12.133-.33 1.303-.658 1.68-.535.367.134.53 1.018.387 1.234Zm-6.25-2.806c.997-.566 1.506-.987 2.036-1.83a3.278 3.278 0 0 1-1.202-1.038c1.894.534 2.85.812 5.07.01-.367.586-.906.935-1.364 1.223.509.843 1.008 1.799 1.18 2.57-.671-.051-1.424.113-1.964.606-.835.041-1.883.309-2.474-1.603-.295.154-.6.36-.6.36.336 1.243.967 2.097 2.626 1.922.092.4.163.627.366.956-.681.4-2.392 1.418-3.695.246v-3.422h.02Z"/><path d="M19.184 31.549v2.744h.6c-.102-.36-.193-.678-.163-.904.153-1.378-.05-1.522-.437-1.84Zm18.311 2.745V30.88c-.397.041-.804.288-1.12.791.03-.01.071-.01.102-.01.753 0 1.008 1.038.997 2.107 0 .175-.01.35-.03.525h.05Zm-13.864-4.667c.316.154.703-.02 1.11.03-.082-.174-.163-.308-.112-.554.102-.494-.295-.627-.479-.607-.458.02-.722.134-1.2 0 .335.309.244.915.681 1.13Z"/><path d="M19.65 33.368c.163-1.419-.06-1.532-.468-1.87-.356-.299-.936-.391-1.517-.792-.417-.288-.53-.71-1.048-1.275.102-1.192.947-2.662 1.578-2.991.091-.051.06-1.902.06-1.902s.418-.02.377-.04c-.56-.35-1.231-.083-1.72.493-.478.39-1.557 1.12-2.3 1.377-1.008-.863-2.586-1.614-3.747-2.786 0 0 1.527-.02 2.23-.308.183-.113.672-.905.478-1.655-.234-.082-.58-.267-.916-.452-.417-.247-.825-.504-1.008-.648-.661-.503-.926-.945-2.076-1.233.07-.535.183-.411.692-.75.641-.443.997-.967 1.262-1.48.204-.412-.03-1.245-.55-.186-.183.38-.682.874-1.241 1.028.04-.329.06-.524.06-.699 1.68-1.192 1.517-2.251 1.385-3.238-.071-.575-.641-.812-.61-.216.01.391.356 1.511-.785 2.17-.02-.494-.162-.72-.264-.977 1.018-1.357.59-2.673.163-3.269-.275-.38-.947-.514-.642.092.245.494.652 1.84-.101 2.385-.265-.329-.56-.452-.662-.894.071-1.48-.02-2.374-.204-2.899-.183-.483-.641-.791-.61-.072.04.823.112 1.85.03 1.922-.071.062-1.15-.955-1.598-1.253-.448-.309-.967-.196-.448.41.458.535 1.832 1.563 1.66 1.902-.113.206-1.1-.617-1.61-.791-.518-.185-.681.103-.243.462.702.586 1.17.967 2.33 1.357 1.151.39 1.731 2.005 1.365 4.317-.01.113-.214.093-.326.052-.05-.884-.204-1.943-.417-2.405-.275-.607-.815-.617-.621.205a6.06 6.06 0 0 1 .132 2.24c-.957-.164-1.323-.42-1.72-.667-.041-.442.183-1.182.224-1.84.06-.648-.316-1.059-.53-.237-.203.782-.346 1.162-.468 1.717-.275-.093-.56-.216-.692-.37-.061-.072 0-.956-.071-1.583-.061-.72-.336-.699-.55-.062-.102.288-.173.679-.204 1.151-.336-.205-.57-.606-.6-.914.05-.75.173-1.552.264-2.046.061-.36-.173-1.08-.458-.205-.203.627-.254 1.15-.376 1.593-.245-.02-.56-1.45-.733-2.354-.071-.421-.418-.894-.479.03-.07 1.018.143 2.046.387 2.509-.488-.051-.957-.946-1.293-1.46-.305-.462-.447.02-.417.206a3.06 3.06 0 0 0 2.372 2.59c1.008 1.46 2.932 2.087 4.55 2.796-2.117-.02-2.667.833-3.634.278.04.801.438 1.182.814 1.367.275.123.54.164.662.185.173.976 1.1.925 1.873.976-.204 1.902.03 4.42 1.69 6.301-.051.966-.112 2.241-.102 3.074-1.354 1.274-2.565 3.936-3.044 5.417-.356 1.1-.895 1.963-1.72 2.364.682.73 1.68.37 2.26-.041.04.647.193 1.11.295 1.49-.387.586-.651.987-.61 1.706-.438.124-.744.391-.978.7-.153.184.02 1.069.193 1.439.54 1.223.123 3.977.02 4.8.225.01.642.03.734-.309.132.124.468.36.62.895-.04.195-.172 1.038.265 1.151.357.093 1.873.041 2.077-.226a4.291 4.291 0 0 1-.58-.987c0-.421-.041-.925-.153-1.151-.173-.309-.61-1.018-.896-1.295-.06-.504-.112-2.755.122-3.619.397-.277 3.075-2.292 3.635-4.214.488.165.335 1.511.335 3.248 0 .463.56.7.896.75.723.093 1.761.782 2.912 2.519.223-.236.519-.473.519-.473.152.206.325.71.427 1.018.122.236 1.059.38 1.771.154.235-.082.377-.123.53-.38-.906-1.604-1.456-2.663-2.616-3.547-.54-.41-1.263-.616-1.863-1.007.407-.76 1.516-4.338.845-5.654-.224-.431-1.07-.863-2.097-.668.855-1.048 2.595-3.104 2.83-3.73.203.246 1.231.071 1.995.38.275.113 1.058 1.13 1.1 1.49.07.627.1 1.388-.337 3.114.306-.051.265-.072.56-.195.05.463-.092.823-.489 1.521.102.627.377 1.583.672 1.768.387-1.161 1.822-2.826 1.782-3.792-.051-1.316-.662-2.426-.59-3.002Zm58.409-1.243s-.418.257-1.293.257c-1.13 0-2.138-.678-2.677-1.038-.692-.463-1.822-1.12-2.952-1.48-2.179 0-3.604-.617-4.713-2.077-1.11-1.439-1.68-3.3-1.68-5.448 0-3.166 1.191-5.735 3.288-6.876.855-.463 1.924-.72 3.013-.72 3.868 0 6.26 2.858 6.26 7.463 0 3.197-1.13 5.581-2.87 6.743.397.154.967.534 1.303.74.519.319 1.15.617 1.802.617.63 0 1.292-.103 1.292-.103l-.773 1.922Zm-4.5-13.23c-.234-.74-1.007-1.86-2.555-1.86-.987 0-1.842.504-2.26 1.296-.498.956-.732 2.24-.732 4.019 0 2.538.417 4.121 1.293 4.759.468.339 1.048.503 1.74.503 2.026 0 2.891-1.562 2.891-5.303 0-1.512-.122-2.59-.377-3.413Zm12.991 11.03a2.465 2.465 0 0 1-.834-1.059c-.692.678-1.7 1.038-2.83 1.038-1.507 0-2.81-.72-3.156-1.758-.163-.493-.234-1.058-.234-2.158V19.05l2.759-.525v6.96c0 .966.091 1.48.234 1.777.152.299.56.504.987.504.692 0 1.527-.503 1.74-1.038v-7.617l2.678-.565v8.264c0 .72.234 1.46.652 1.963l-1.996 1.152Zm6.667-4.821v.093c0 1.665.814 2.621 2.26 2.621.967 0 1.863-.36 2.728-1.08l1.09 1.697c-1.233 1.007-2.535 1.5-4.042 1.5-3.074 0-5.07-2.2-5.07-5.602 0-1.942.398-3.237 1.344-4.296.876-.997 1.945-1.46 3.37-1.46 1.231 0 2.412.422 3.094 1.141.988 1.018 1.425 2.477 1.425 4.739v.658h-6.199v-.01Zm3.288-2.2c0-.801-.081-1.223-.336-1.623-.275-.422-.672-.638-1.232-.638-1.069 0-1.68.843-1.68 2.344v.041h3.248v-.123Zm7.298 2.2v.093c0 1.665.815 2.621 2.26 2.621.957 0 1.863-.36 2.718-1.08l1.089 1.697c-1.231 1.007-2.534 1.5-4.041 1.5-3.074 0-5.069-2.2-5.069-5.602 0-1.942.397-3.237 1.343-4.296.886-.997 1.945-1.46 3.37-1.46 1.232 0 2.412.422 3.094 1.141.988 1.018 1.425 2.477 1.425 4.739v.658h-6.189v-.01Zm3.288-2.2c0-.801-.081-1.223-.336-1.623-.274-.422-.671-.638-1.231-.638-1.069 0-1.68.843-1.68 2.344v.041h3.247v-.123Zm10.588 6.723v-7.041c0-1.224-.214-1.583-.947-1.583-.56 0-1.293.38-1.944.976v7.648h-2.81v-7.843c0-.936-.122-1.82-.376-2.54l2.494-.719c.254.453.397.915.397 1.357.417-.298.773-.545 1.231-.802a4.391 4.391 0 0 1 1.934-.462c1.191 0 2.24.637 2.576 1.562.142.401.213.874.213 1.542v7.905h-2.768Zm8.864.339c-1.323 0-2.768-.422-4.336-1.244l1.008-2.076c.855.534 2.341 1.223 3.563 1.223.794 0 1.425-.535 1.425-1.223 0-.74-.519-1.12-1.649-1.326l-1.263-.237c-.712-.123-1.588-.637-1.964-1.1-.377-.462-.611-1.243-.611-1.952 0-2.108 1.659-3.526 4.143-3.526 1.72 0 2.85.524 3.827 1.018l-.916 1.901c-1.069-.555-1.842-.781-2.636-.781-.815 0-1.364.421-1.364 1.059 0 .555.356.842 1.343 1.1l1.293.339c1.324.339 1.761.74 2.138 1.223.397.504.59 1.12.59 1.84 0 2.24-1.842 3.762-4.591 3.762Zm9.305-.082c-1.191 0-2.158-.566-2.494-1.48-.214-.556-.254-.885-.254-2.437v-8.079c0-1.419-.041-2.292-.143-3.259l2.871-.657c.101.586.142 1.285.142 2.816v8.44c0 1.86.02 2.117.183 2.404.102.185.336.299.56.299.102 0 .173 0 .316-.042l.478 1.697c-.458.195-1.048.298-1.659.298Zm10.303.298c-.652-.277-1.232-.76-1.507-1.316a4.463 4.463 0 0 1-.641.566c-.529.38-1.282.596-2.158.596-2.392 0-3.685-1.223-3.685-3.382 0-2.539 1.741-3.72 5.151-3.72.214 0 .397 0 .631.02v-.442c0-1.203-.234-1.604-1.252-1.604-.906 0-1.944.442-3.105 1.224l-1.191-2.036c.57-.36.988-.565 1.741-.894 1.048-.442 1.944-.637 2.932-.637 1.801 0 3.033.678 3.45 1.88.143.443.214.782.184 1.943l-.061 3.64c-.021 1.181.061 1.695 1.007 2.415l-1.496 1.747Zm-2.392-5.283c-1.944 0-2.616.36-2.616 1.644 0 .843.519 1.419 1.231 1.419.52 0 1.049-.278 1.466-.74l.041-2.323h-.122Zm11.531 4.728v-7.041c0-1.224-.214-1.583-.947-1.583-.57 0-1.303.38-1.944.976v7.648h-2.809v-7.843c0-.936-.123-1.82-.377-2.54l2.494-.719c.254.453.397.915.397 1.357.417-.298.773-.545 1.232-.802.559-.298 1.302-.462 1.934-.462 1.191 0 2.239.637 2.575 1.562.143.401.214.874.214 1.542v7.905h-2.769Zm12.134 0c-.081-.164-.122-.34-.163-.637-.692.617-1.506.904-2.473.904-2.718 0-4.438-2.138-4.438-5.499 0-3.382 1.862-5.705 4.58-5.705.774 0 1.385.195 1.904.617-.041-.236-.082-.977-.082-1.604v-3.72l2.79.441V25.67c0 2.662.213 3.536.397 3.957h-2.515Zm-.631-7.966c-.519-.463-1.028-.7-1.527-.7-1.252 0-1.802 1.06-1.802 3.465 0 2.323.479 3.094 1.945 3.094.519 0 1.109-.36 1.384-.7v-5.16ZM71.361 50.328c-1.801 0-3.328-.637-4.418-1.819-1.21-1.326-1.78-3.125-1.78-5.623 0-2.765.732-4.738 2.218-6.085 1.028-.935 2.26-1.377 3.746-1.377 1.527 0 2.85.483 3.94 1.439l-.774 1.08c-1.17-.803-2.005-1.121-3.115-1.121-1.68 0-2.993.781-3.583 2.446-.377 1.08-.56 2.303-.56 3.68 0 1.902.356 3.444 1.008 4.4.651.955 2.117 1.541 3.471 1.541.906 0 1.68-.185 2.28-.565v-4.42h-2.89l-.337-1.44h4.836v6.764c-1.029.679-2.576 1.1-4.042 1.1Zm11.361.042c-2.87 0-4.5-2.128-4.5-5.602 0-3.423 1.7-5.52 4.439-5.52 1.74 0 2.87.802 3.583 1.84.651.956.957 2.2.957 3.916 0 3.505-1.863 5.366-4.48 5.366Zm2.138-8.419c-.438-.935-1.364-1.356-2.22-1.356-.926 0-1.78.442-2.137 1.14-.336.658-.499 1.501-.499 2.745 0 1.48.254 2.796.651 3.444.377.637 1.212 1.058 2.118 1.058 1.089 0 1.903-.565 2.26-1.583.234-.658.315-1.243.315-2.282-.01-1.47-.153-2.467-.488-3.166Zm8.844 8.255h-1.608L88.35 39.66l1.68-.36 2.432 7.257c.295.863.499 1.799.499 1.799H93s.163-.823.5-1.779l2.391-7h1.741l-3.929 10.629Zm7.148-5.099v.257c0 .997.122 1.758.488 2.302.58.905 1.547 1.296 2.596 1.296 1.008 0 1.822-.32 2.555-.998l.631 1.06c-.926.842-2.178 1.305-3.522 1.305-2.891 0-4.621-2.108-4.621-5.602 0-1.779.376-2.92 1.252-3.978.834-.997 1.862-1.46 3.114-1.46 1.13 0 2.118.4 2.83 1.141.896.925 1.191 1.922 1.191 4.44v.237h-6.514Zm4.295-3.598c-.356-.565-1.089-.925-1.883-.925-1.486 0-2.321 1.1-2.412 3.28h4.774c-.021-1.142-.163-1.84-.479-2.355Zm9.579-.359a1.408 1.408 0 0 0-.458-.082c-.631 0-1.252.267-1.741.76-.478.484-.601.802-.601 1.676v6.6h-1.628v-8.121c0-1.542-.357-2.241-.357-2.241l1.629-.442s.397.822.336 1.717c.753-1.08 1.863-1.758 2.932-1.758.275 0 .56.103.56.103l-.672 1.788Zm8.245 8.942V42.97c0-1.12-.081-1.398-.376-1.758-.235-.267-.672-.442-1.151-.442-.834 0-2.137.679-2.891 1.48v7.843h-1.588v-8.12c0-1.5-.397-2.22-.397-2.22l1.588-.442s.377.78.377 1.644c1.089-1.1 2.178-1.624 3.288-1.624 1.13 0 2.138.617 2.555 1.542.163.38.254.802.254 1.223v7.997h-1.659Zm16.236 0v-7.78c0-1.018-.458-1.543-1.344-1.543-.946 0-1.679.617-2.768 1.624v7.7h-1.649v-7.484c0-.637-.061-1.059-.296-1.357-.254-.298-.59-.421-1.068-.421-.794 0-1.568.4-2.657 1.398v7.863h-1.568v-8.161c0-1.521-.377-2.241-.377-2.241l1.588-.38s.377.822.377 1.562c.692-.781 1.965-1.583 3.034-1.583 1.028 0 2.056.637 2.432 1.758 1.008-1.08 2.281-1.758 3.349-1.758 1.548 0 2.617 1.182 2.617 2.858v7.945h-1.67Zm6.168-4.985v.257c0 .997.123 1.758.479 2.302.59.905 1.547 1.296 2.596 1.296 1.007 0 1.822-.32 2.555-.998l.631 1.06c-.916.842-2.179 1.305-3.522 1.305-2.891 0-4.622-2.108-4.622-5.602 0-1.779.377-2.92 1.252-3.978.835-.997 1.863-1.46 3.125-1.46 1.13 0 2.118.4 2.83 1.141.896.925 1.191 1.922 1.191 4.44v.237h-6.515Zm4.286-3.598c-.356-.565-1.089-.925-1.883-.925-1.486 0-2.321 1.1-2.413 3.28h4.774c-.01-1.142-.163-1.84-.478-2.355Zm11.156 8.583V42.97c0-1.12-.082-1.398-.377-1.758-.234-.267-.672-.442-1.15-.442-.835 0-2.138.679-2.891 1.48v7.843h-1.588v-8.12c0-1.5-.397-2.22-.397-2.22l1.588-.442s.377.78.377 1.644c1.089-1.1 2.178-1.624 3.288-1.624 1.13 0 2.137.617 2.555 1.542.163.38.254.802.254 1.223v7.997h-1.659Zm8.685-9.282h-2.178v6.784c0 1.162.316 1.563 1.344 1.563.458 0 .733-.062 1.028-.216L169.93 50c-.519.277-1.11.421-1.843.421-.549 0-.967-.103-1.364-.298-.733-.36-1.007-1.038-1.007-2.097V40.8h-1.364v-1.244h1.364c0-1.017.162-2.662.162-2.662l1.711-.38s-.204 1.644-.204 3.042h2.616l-.499 1.254Z"/></g><defs><clipPath id="a"><path fill="#fff" d="M0 0h170v56H0z"/></clipPath></defs></svg>