<svg xmlns="http://www.w3.org/2000/svg" aria-hidden="true"><defs><symbol viewBox="0 0 384 512" id="qld__icon__arrow-up"><path fill="currentColor" d="M379.8 225.7c-3.1 3.6-7.5 5.4-11.8 5.4-3.844 0-7.703-1.426-10.77-4.31L208 86.12v377.3c0 9.171-7.156 16.59-15.1 16.59S176 472.6 176 463.4V86.12L26.8 226.82c-6.55 5.28-16.66 5.68-22.644-1.12-5.937-6.8-5.453-17.3 1.078-23.5l176-165.9c6.094-5.768 15.44-5.768 21.53 0l176 165.9c6.536 6.2 7.036 16.7 1.036 23.5z"/></symbol><symbol viewBox="0 0 448 512" id="qld__icon__arrow-right"><path fill="currentColor" d="m443.7 266.8-165.9 176c-3.3 3.5-8.7 5.2-12.3 5.2-3.986 0-7.988-1.375-11.16-4.156-6.773-5.938-7.275-16.06-1.118-22.59L393.9 272H16.59C7.419 272 0 264.845 0 256.9S7.421 240 16.59 240h377.3L253.19 90.7c-6.157-6.531-5.655-16.66 1.118-22.59 6.789-5.906 17.27-5.469 23.45 1.094l165.9 176a15.732 15.732 0 0 1 .042 21.596z"/></symbol><symbol viewBox="0 0 384 512" id="qld__icon__arrow-down"><path fill="currentColor" d="m378.8 309.8-176 165.9c-3.1 2.9-6.9 4.3-10.8 4.3s-7.719-1.426-10.77-4.31l-176-165.9c-6.527-6.19-7.011-16.69-1.074-23.49 5.953-6.838 16.09-7.259 22.61-1.134L176 425.9V48.59c0-9.171 7.156-16.59 15.1-16.59S208 39.42 208 48.59v377.3l149.2-140.7c6.516-6.125 16.66-5.704 22.61 1.134 5.99 6.776 5.49 17.276-1.01 23.476z"/></symbol><symbol viewBox="0 0 384 512" id="qld__icon__arrow-left"><path fill="currentColor" d="M448 256c0 8.8-7.4 16-16.6 16H54.11l140.7 149.3c6.157 6.531 5.655 16.66-1.118 22.59A17.316 17.316 0 0 1 182.5 448c-4.505 0-9.009-1.75-12.28-5.25l-165.9-176c-5.752-6.094-5.752-15.41 0-21.5l165.9-176c6.19-6.562 16.69-7 23.45-1.094 6.773 5.938 7.275 16.06 1.118 22.59L54.11 240h377.3c9.19 0 16.59 7.2 16.59 16z"/></symbol><symbol viewBox="0 0 512 512" id="qld__icon__arrow-view-all"><path fill="currentColor" d="M283.3 148.7c-6.25-6.25-16.38-6.25-22.62 0s-6.25 16.38 0 22.62L329.4 240H144c-8.8 0-16 7.2-16 16s7.156 16 16 16h185.4l-68.69 68.69c-6.25 6.25-6.25 16.38 0 22.62s16.38 6.25 22.62 0l96-96C382.4 264.2 384 260.1 384 256s-1.562-8.188-4.688-11.31L283.3 148.7zM256 0C114.6 0 0 114.6 0 256s114.6 256 256 256 256-114.6 256-256S397.4 0 256 0zm0 480C132.5 480 32 379.5 32 256S132.5 32 256 32s224 100.5 224 224-100.5 224-224 224z"/></symbol><symbol viewBox="0 0 448 512" id="qld__icon__chevron-up"><path fill="currentColor" d="M443.8 330.8c-3.2 3.5-7.5 5.2-11.8 5.2a15.944 15.944 0 0 1-10.86-4.25L224 149.8 26.9 330.9c-6.5 6-16.64 5.625-22.61-.906-6-6.5-5.594-16.59.89-22.59l208-192a15.956 15.956 0 0 1 21.72 0l208 192c6.4 6.896 6.9 16.896.9 23.396z"/></symbol><symbol viewBox="0 0 384 512" id="qld__icon__chevron-right"><path fill="currentColor" d="M85.14 475.8c-3.438-3.141-5.156-7.438-5.156-11.75 0-3.891 1.406-7.781 4.25-10.86l181.1-197.1L84.23 58.86c-6-6.5-5.625-16.64.906-22.61 6.5-6 16.59-5.594 22.59.89l192 208a15.956 15.956 0 0 1 0 21.72l-192 208c-6.026 6.44-16.086 6.94-22.586.94z"/></symbol><symbol viewBox="0 0 384 512" id="qld__icon__chevron-down"><path fill="currentColor" d="M4.251 181.1c3.141-3.4 7.439-6 11.749-6 3.891 0 7.781 1.406 10.86 4.25l197.1 181.1 197.1-181.1c6.5-6 16.64-5.625 22.61.906 6 6.5 5.594 16.59-.89 22.59l-208 192a15.956 15.956 0 0 1-21.72 0l-208-192C-1.344 197.7-1.75 187.6 4.25 181.1z"/></symbol><symbol viewBox="0 0 384 512" id="qld__icon__chevron-left"><path fill="currentColor" d="M234.8 36.25c3.438 3.141 5.156 7.438 5.156 11.75 0 3.891-1.406 7.781-4.25 10.86L53.77 256l181.1 197.1c6 6.5 5.625 16.64-.906 22.61-6.5 6-16.59 5.594-22.59-.89l-192-208a15.956 15.956 0 0 1 0-21.72l192-208c6.826-6.44 16.926-6.85 23.426-.85z"/></symbol><symbol viewBox="0 0 16 16" id="qld__icon__close"><path d="m9.547 8 4.828-4.781.984-.985c.141-.14.141-.375 0-.562L14.33.64c-.19-.14-.425-.14-.565 0L8 6.453 2.187.641C2.047.5 1.813.5 1.625.64L.594 1.67c-.14.188-.14.423 0 .563L6.406 8 .594 13.813c-.14.14-.14.374 0 .562l1.031 1.031c.188.14.422.14.563 0L8 9.594l4.781 4.828.985.984c.14.14.375.14.562 0l1.031-1.031c.141-.188.141-.422 0-.563L9.547 8Z" fill="currentColor"/></symbol><symbol viewBox="0 0 384 512" id="qld__icon__close-hover"><path fill="currentColor" d="M0 256C0 114.6 114.6 0 256 0s256 114.6 256 256-114.6 256-256 256S0 397.4 0 256zm175-47.9 47.1 47L175 303c-9.3 9.4-9.3 24.6 0 33.1 9.4 10.2 24.6 10.2 33.1 0l47-46.2 47.9 46.2c9.4 10.2 24.6 10.2 33.1 0 10.2-8.5 10.2-23.7 0-33.1l-46.2-47.9 46.2-47c10.2-8.5 10.2-23.7 0-33.1-8.5-9.3-23.7-9.3-33.1 0l-47.9 47.1-47-47.1c-8.5-9.3-23.7-9.3-33.1 0-9.3 9.4-9.3 24.6 0 33.1z"/></symbol><symbol viewBox="0 0 512 512" id="qld__icon__error"><path fill="currentColor" d="M256 0C114.6 0 0 114.6 0 256s114.6 256 256 256 256-114.6 256-256S397.4 0 256 0zm0 480C132.5 480 32 379.5 32 256S132.5 32 256 32s224 100.5 224 224-100.5 224-224 224zm106.4-348.2c-6.688-5.75-16.8-4.938-22.55 1.75L256 231.4l-83.86-97.84c-5.74-6.66-15.84-7.36-22.54-1.76-6.719 5.75-7.5 15.88-1.734 22.56L234.9 256l-87.08 101.6c-5.766 6.688-4.984 16.81 1.734 22.56C152.6 382.8 156.3 384 160 384c4.5 0 8.984-1.906 12.14-5.594L256 280.6l83.86 97.84C343 382.1 347.5 384 352 384c3.688 0 7.391-1.281 10.41-3.844 6.719-5.75 7.5-15.88 1.734-22.56L277.1 256l87.08-101.6c5.72-6.7 4.92-16.8-1.78-22.6z"/></symbol><symbol viewBox="0 0 512 512" id="qld__icon__success"><path fill="currentColor" d="M235.3 331.3c-6.2 6.3-16.4 6.3-22.6 0l-64-64c-6.3-6.2-6.3-16.4 0-22.6 6.2-6.3 16.4-6.3 22.6 0l52.7 52.7 116.7-116.7c6.2-6.3 16.4-6.3 22.6 0 6.3 6.2 6.3 16.4 0 22.6l-128 128zM512 256c0 141.4-114.6 256-256 256S0 397.4 0 256 114.6 0 256 0s256 114.6 256 256zM256 32C132.3 32 32 132.3 32 256s100.3 224 224 224 224-100.3 224-224S379.7 32 256 32z"/></symbol><symbol viewBox="0 0 512 512" id="qld__icon__warning"><path fill="currentColor" d="M256 360c-13.25 0-23.1 10.74-23.1 24 0 13.25 10.75 24 23.1 24 13.25 0 23.1-10.75 23.1-24 .9-13.3-9.8-24-23.1-24zm0-40c8.843 0 15.1-7.156 15.1-16V160c0-8.844-7.155-16-15.1-16s-16 7.2-16 16v144c0 8.8 7.2 16 16 16zm248.3 77.3L304.5 59.38C294.4 42.27 276.2 32.03 256 32c-20.2 0-38.3 10.22-48.5 27.36l-199.9 338c-10.05 16.97-10.2 37.34-.422 54.5C17.29 469.5 35.55 480 56.1 480H456c20.51 0 38.75-10.53 48.81-28.17 9.79-17.13 9.59-37.53-.51-54.53zm-28.2 37.8c-3.4 8.4-11.3 12.9-21 12.9h-399c-8.906 0-16.78-4.484-21.08-12-4.078-7.156-4.015-15.3.156-22.36L235.1 75.66C239.4 68.36 247.2 64 256 64c0 0-.016 0 0 0 8.765.016 16.56 4.359 20.86 11.64l199.9 338c3.34 7.06 4.34 15.16-.66 21.46z"/></symbol><symbol viewBox="0 0 20 20" id="qld__icon__critical"><path fill="currentColor" d="M18.473 6.309 13.69 1.527C13.375 1.211 12.953 1 12.496 1H7.47c-.457 0-.88.21-1.196.527L1.493 6.31A1.674 1.674 0 0 0 1 7.504v5.027c0 .457.176.88.492 1.196l4.781 4.78c.317.317.739.493 1.196.493h5.027c.457 0 .879-.176 1.195-.492l4.817-4.781c.316-.317.492-.739.492-1.196V7.504c0-.457-.21-.879-.527-1.195Zm-1.16 6.222-4.817 4.781H7.47l-4.782-4.78V7.503L7.47 2.688h5.027l4.816 4.816v5.027Z"/><path fill="currentColor" d="M9.143 5.246c0-.14.071-.246.214-.246h1.25c.143 0 .214.106.214.246l-.25 6.515c0 .105-.107.176-.214.176h-.75c-.107 0-.214-.07-.214-.176l-.25-6.515ZM9 14.014a.991.991 0 0 1 1-.986c.536 0 1 .458 1 .986A.991.991 0 0 1 10 15c-.571 0-1-.422-1-.986Z"/></symbol><symbol viewBox="0 0 18 18" id="qld__icon__info"><path fill="currentColor" d="M16.071 0H1.93A1.929 1.929 0 0 0 0 1.929V16.07C0 17.156.844 18 1.929 18H16.07A1.929 1.929 0 0 0 18 16.071V1.93C18 .884 17.116 0 16.071 0Zm.643 16.071a.66.66 0 0 1-.643.643H1.93a.635.635 0 0 1-.643-.643V1.93a.66.66 0 0 1 .643-.643h14.14c.322 0 .643.321.643.643v14.14Zm-9.16-3.214a.489.489 0 0 0-.483.482v.322c0 .281.201.482.483.482h2.892a.489.489 0 0 0 .483-.482v-.322c0-.24-.242-.482-.483-.482h-.482V7.232c0-.24-.24-.482-.482-.482H7.554a.489.489 0 0 0-.483.482v.322c0 .28.201.482.483.482h.482v4.821h-.482ZM9 3.214c-.723 0-1.286.603-1.286 1.286A1.27 1.27 0 0 0 9 5.786c.683 0 1.286-.563 1.286-1.286 0-.683-.603-1.286-1.286-1.286Z"/></symbol><symbol viewBox="0 0 30 31" id="qld__icon__search"><path fill="currentColor" d="m29.78 28.256-7.562-7.562a.666.666 0 0 0-.47-.176h-.644c2.052-2.228 3.283-5.1 3.283-8.325C24.387 5.511 18.877 0 12.193 0 5.453 0 0 5.51 0 12.194a12.184 12.184 0 0 0 12.194 12.193c3.165 0 6.096-1.231 8.265-3.224v.586c0 .234.059.41.176.527l7.562 7.563c.294.293.704.293.997 0l.586-.586c.293-.294.293-.704 0-.997Zm-17.587-5.745A10.258 10.258 0 0 1 1.877 12.194 10.295 10.295 0 0 1 12.194 1.876c5.686 0 10.317 4.631 10.317 10.318A10.295 10.295 0 0 1 12.194 22.51Z"/></symbol><symbol viewBox="0 0 448 512" id="qld__icon__mobile-menu"><path fill="currentColor" d="M0 80c0-8.84 7.164-16 16-16h416c8.8 0 16 7.16 16 16s-7.2 16-16 16H16C7.164 96 0 88.84 0 80zm0 160c0-8.8 7.164-16 16-16h416c8.8 0 16 7.2 16 16s-7.2 16-16 16H16c-8.836 0-16-7.2-16-16zm432 176H16c-8.836 0-16-7.2-16-16s7.164-16 16-16h416c8.8 0 16 7.2 16 16s-7.2 16-16 16z"/></symbol><symbol viewBox="0 0 576 512" id="qld__icon__home"><path fill="currentColor" d="m541 229.16-61-49.83v-77.4a6 6 0 0 0-6-6h-20a6 6 0 0 0-6 6v51.33L308.19 39.14a32.16 32.16 0 0 0-40.38 0L35 229.16a8 8 0 0 0-1.16 11.24l10.1 12.41a8 8 0 0 0 11.2 1.19L96 220.62v243a16 16 0 0 0 16 16h128a16 16 0 0 0 16-16v-128l64 .3V464a16 16 0 0 0 16 16l128-.33a16 16 0 0 0 16-16V220.62L520.86 254a8 8 0 0 0 11.25-1.16l10.1-12.41a8 8 0 0 0-1.21-11.27zm-93.11 218.59h.1l-96 .3V319.88a16.05 16.05 0 0 0-15.95-16l-96-.27a16 16 0 0 0-16.05 16v128.14H128V194.51L288 63.94l160 130.57z"/></symbol><symbol viewBox="0 0 448 512" id="qld__icon__ellipsis"><path fill="currentColor" d="M352 256c0-17.7 14.3-32 32-32s32 14.3 32 32-14.3 32-32 32-32-14.3-32-32zm-160 0c0-17.7 14.3-32 32-32s32 14.3 32 32-14.3 32-32 32-32-14.3-32-32zm-96 0c0 17.7-14.33 32-32 32s-32-14.3-32-32 14.33-32 32-32 32 14.3 32 32z"/></symbol><symbol viewBox="0 0 320 512" id="accordionChevron"><path d="m168.5 164.2 148 146.8c4.7 4.7 4.7 12.3 0 17l-19.8 19.8c-4.7 4.7-12.3 4.7-17 0L160 229.3 40.3 347.8c-4.7 4.7-12.3 4.7-17 0L3.5 328c-4.7-4.7-4.7-12.3 0-17l148-146.8c4.7-4.7 12.3-4.7 17 0z"/></symbol><symbol viewBox="0 0 20 20" id="mobileMenuOpenIcon"><path d="M16.4 9H3.6c-.552 0-.6.447-.6 1s.048 1 .6 1h12.8c.552 0 .6-.447.6-1s-.048-1-.6-1zm0 4H3.6c-.552 0-.6.447-.6 1s.048 1 .6 1h12.8c.552 0 .6-.447.6-1s-.048-1-.6-1zM3.6 7h12.8c.552 0 .6-.447.6-1s-.048-1-.6-1H3.6c-.552 0-.6.447-.6 1s.048 1 .6 1z"/></symbol><symbol viewBox="0 0 16 16" id="mobileMenuCloseIcon"><path d="m9.547 8 4.828-4.781.984-.985c.141-.14.141-.375 0-.562L14.33.64c-.19-.14-.425-.14-.565 0L8 6.453 2.187.641C2.047.5 1.813.5 1.625.64L.594 1.67c-.14.188-.14.423 0 .563L6.406 8 .594 13.813c-.14.14-.14.374 0 .562l1.031 1.031c.188.14.422.14.563 0L8 9.594l4.781 4.828.985.984c.14.14.375.14.562 0l1.031-1.031c.141-.188.141-.422 0-.563L9.547 8Z" fill="currentColor"/></symbol><symbol viewBox="0 0 12 21" id="socialIconFacebook"><path d="M3.852 20.5h3.671v-8.945h2.852L10.844 8h-3.32V5.54c0-.548.078-.978.312-1.25.234-.313.742-.47 1.445-.47h1.875V.656A24.674 24.674 0 0 0 8.422.5c-1.406 0-2.5.43-3.32 1.25-.86.82-1.25 1.953-1.25 3.438V8H.844v3.555h3.008V20.5Z" fill="currentColor"/></symbol><symbol viewBox="0 0 20 17" id="socialIconTwitter"><path d="M17.93 4.438A9.042 9.042 0 0 0 20 2.288c-.781.352-1.563.586-2.344.664.86-.547 1.485-1.289 1.797-2.265-.82.468-1.68.82-2.617.976a4.73 4.73 0 0 0-1.367-.937 3.868 3.868 0 0 0-1.64-.352c-.743 0-1.407.195-2.032.547a4.264 4.264 0 0 0-1.485 1.523c-.39.625-.546 1.328-.546 2.032 0 .312 0 .625.078.937-1.68-.078-3.242-.469-4.727-1.25-1.484-.742-2.695-1.758-3.71-3.047a4.063 4.063 0 0 0-.587 2.07c0 .704.157 1.368.508 1.954.313.625.781 1.093 1.328 1.484A3.37 3.37 0 0 1 .82 6.077v.078c0 .977.313 1.836.938 2.578a3.937 3.937 0 0 0 2.344 1.446 5.512 5.512 0 0 1-1.094.117c-.235 0-.508 0-.742-.04.234.821.703 1.485 1.406 2.032.703.547 1.484.781 2.422.781-1.524 1.172-3.242 1.758-5.117 1.758-.391 0-.704 0-.977-.039 1.875 1.25 3.984 1.836 6.29 1.836 2.382 0 4.491-.586 6.366-1.836a11.079 11.079 0 0 0 3.946-4.414c.898-1.719 1.367-3.555 1.367-5.43 0-.234-.04-.39-.04-.508Z" fill="currentColor"/></symbol><symbol viewBox="0 0 18 19" id="socialIconLinkedIn"><path d="M4.156 18.25V6.57H.523v11.68h3.633ZM2.36 4.969a2.04 2.04 0 0 0 1.485-.625c.39-.39.625-.899.625-1.485 0-.546-.235-1.054-.625-1.484C3.414.985 2.906.75 2.359.75c-.586 0-1.093.234-1.484.625A2.04 2.04 0 0 0 .25 2.859c0 .586.195 1.094.625 1.485.39.43.898.625 1.484.625ZM17.75 18.25v-6.406c0-1.797-.273-3.125-.781-3.985-.703-1.054-1.875-1.601-3.555-1.601-.86 0-1.562.234-2.187.625-.586.351-1.016.781-1.25 1.289h-.04V6.57H6.462v11.68h3.594v-5.781c0-.899.117-1.602.39-2.07.313-.626.899-.938 1.758-.938.82 0 1.367.351 1.68 1.055.156.43.234 1.093.234 2.03v5.704h3.633Z" fill="currentColor"/></symbol><symbol viewBox="0 0 22 15" id="socialIconYouTube"><path d="M21.234 2.344c.157.703.313 1.797.391 3.203l.04 1.953-.04 1.953c-.078 1.485-.234 2.54-.39 3.242-.157.47-.391.86-.704 1.172a2.547 2.547 0 0 1-1.21.703c-.704.196-2.266.313-4.766.39L11 15l-3.555-.04c-2.5-.077-4.101-.194-4.765-.39-.47-.117-.899-.351-1.211-.703a2.265 2.265 0 0 1-.703-1.172C.57 11.992.453 10.937.375 9.453L.335 7.5c0-.547 0-1.21.04-1.953.078-1.406.195-2.5.39-3.203.118-.469.352-.86.704-1.211C1.78.82 2.21.586 2.679.43 3.345.273 4.946.117 7.446.04L11 0l3.555.04c2.5.077 4.062.233 4.765.39.47.156.86.39 1.211.703.313.351.547.742.703 1.21Zm-12.422 8.36L14.399 7.5 8.813 4.336v6.367Z" fill="currentColor"/></symbol><symbol viewBox="0 0 18 19" id="socialIconInstagram"><path d="M9 5.008c.781 0 1.523.234 2.227.625.703.39 1.25.937 1.64 1.64.39.704.625 1.446.625 2.227 0 .82-.234 1.563-.625 2.266a4.142 4.142 0 0 1-1.64 1.64A4.517 4.517 0 0 1 9 13.992c-.82 0-1.563-.195-2.266-.586a4.143 4.143 0 0 1-1.64-1.64A4.556 4.556 0 0 1 4.508 9.5c0-.781.195-1.523.586-2.227.39-.703.937-1.25 1.64-1.64.704-.39 1.446-.625 2.266-.625Zm0 7.422c.781 0 1.484-.274 2.07-.86a2.86 2.86 0 0 0 .86-2.07c0-.781-.313-1.484-.86-2.07-.586-.547-1.289-.86-2.07-.86a2.86 2.86 0 0 0-2.07.86 2.834 2.834 0 0 0-.86 2.07c0 .82.274 1.523.86 2.07.547.586 1.25.86 2.07.86Zm5.742-7.617c0-.274-.117-.508-.312-.743-.235-.195-.47-.312-.742-.312a1 1 0 0 0-.743.312.976.976 0 0 0-.312.742c0 .313.078.547.312.743.196.234.43.312.742.312.274 0 .508-.078.704-.312a1.21 1.21 0 0 0 .351-.742Zm2.969 1.054c0 .742.039 1.953.039 3.633 0 1.719-.04 2.93-.078 3.672a8.514 8.514 0 0 1-.313 1.914 4.628 4.628 0 0 1-1.093 1.719 4.71 4.71 0 0 1-1.68 1.054c-.547.196-1.211.313-1.953.352-.742.039-1.953.039-3.633.039-1.719 0-2.93 0-3.672-.04-.742-.038-1.367-.155-1.914-.39a4.031 4.031 0 0 1-1.719-1.015 4.545 4.545 0 0 1-1.054-1.72c-.196-.546-.313-1.17-.352-1.913C.25 12.43.25 11.219.25 9.5c0-1.68 0-2.89.04-3.633.038-.742.155-1.406.35-1.953a4.71 4.71 0 0 1 1.055-1.68 4.628 4.628 0 0 1 1.72-1.093A8.511 8.511 0 0 1 5.327.828 73.603 73.603 0 0 1 9 .75c1.68 0 2.89.04 3.633.078.742.04 1.406.156 1.953.313a4.807 4.807 0 0 1 1.68 1.093c.468.47.859 1.055 1.093 1.68.157.547.274 1.211.352 1.953Zm-1.875 8.79c.156-.43.234-1.134.312-2.11 0-.547.04-1.367.04-2.422v-1.25c0-1.055-.04-1.875-.04-2.422-.078-.976-.156-1.68-.312-2.11a2.962 2.962 0 0 0-1.68-1.679c-.43-.156-1.133-.234-2.11-.312-.585 0-1.405-.04-2.421-.04h-1.25c-1.055 0-1.875.04-2.422.04-.976.078-1.68.156-2.11.312-.82.313-1.366.898-1.679 1.68-.156.43-.273 1.133-.312 2.11-.04.585-.04 1.405-.04 2.421v1.25c0 1.055 0 1.875.04 2.422.039.976.156 1.68.312 2.11.313.82.898 1.366 1.68 1.679.43.156 1.133.273 2.11.312.546.04 1.366.04 2.421.04h1.25c1.055 0 1.875 0 2.422-.04.976-.039 1.68-.156 2.11-.312a2.961 2.961 0 0 0 1.679-1.68Z" fill="currentColor"/></symbol><symbol viewBox="0 0 448 512" id="ctaIcon"><path d="M218.101 38.101 198.302 57.9c-4.686 4.686-4.686 12.284 0 16.971L353.432 230H12c-6.627 0-12 5.373-12 12v28c0 6.627 5.373 12 12 12h341.432l-155.13 155.13c-4.686 4.686-4.686 12.284 0 16.971l19.799 19.799c4.686 4.686 12.284 4.686 16.971 0l209.414-209.414c4.686-4.686 4.686-12.284 0-16.971L235.071 38.101c-4.686-4.687-12.284-4.687-16.97 0z"/></symbol></defs></svg>