<svg width="98" height="98" fill="none" xmlns="http://www.w3.org/2000/svg"><path d="M48.874 97.177c26.758 0 48.438-21.68 48.438-48.437 0-26.758-21.68-48.438-48.438-48.438C22.117.302.438 21.982.438 48.74c0 26.758 21.68 48.437 48.438 48.437ZM6.688 48.74c0-23.047 18.75-42.188 42.188-42.188 23.046 0 42.187 18.946 42.187 42.188S72.117 90.927 48.874 90.927c-23.242 0-42.187-18.75-42.187-42.187Zm64.648-3.516L36.96 24.326c-3.125-1.563-6.835.586-6.835 4.101v40.625c0 3.711 3.71 5.86 6.835 4.102l34.375-19.727c3.32-1.758 3.32-6.25 0-8.203Zm-34.96 19.14V33.31c0-.781.976-1.367 1.757-.977L64.304 48.35c.781.39.781 1.563 0 1.953l-26.172 15.04c-.78.585-1.758 0-1.758-.977Z" fill="#008733"/></svg>